<?xml version="1.0" standalone="no"?>
<!DOCTYPE svg PUBLIC "-//W3C//DTD SVG 1.1//EN" "http://www.w3.org/Graphics/SVG/1.1/DTD/svg11.dtd" >
<svg xmlns="http://www.w3.org/2000/svg">
<metadata>Generated by IcoMoon</metadata>
<defs>
<font id="ant-motif-icons" horiz-adv-x="1024">
<font-face units-per-em="1024" ascent="960" descent="-64" />
<missing-glyph horiz-adv-x="1024" />
<glyph unicode="&#x20;" horiz-adv-x="512" d="" />
<glyph unicode="&#xe900;" glyph-name="about" horiz-adv-x="1044" d="M0 898.56v-731.423h182.866v-186.286l59.412 47.985 172.585 138.301h609.137v731.423h-1024zM73.134 825.426h877.752v-585.155h-561.152l-10.281-7.987-123.433-98.304v106.291h-182.886v585.175zM475.423 752.271v-73.134h73.155v73.134h-73.155zM475.423 605.983v-292.536h73.155v292.536h-73.155z" />
<glyph unicode="&#xe901;" glyph-name="access-for-blind" d="M484.7 960c-82.002 0-149.34-67.338-149.34-149.34s67.338-149.32 149.34-149.32 149.32 67.318 149.32 149.32c0 82.002-67.318 149.34-149.32 149.34zM484.7 874.66c0.183 0.002 0.4 0.003 0.617 0.003 35.007 0 63.386-28.379 63.386-63.386 0-0.217-0.001-0.434-0.003-0.65v0.033c0.002-0.183 0.003-0.4 0.003-0.617 0-35.007-28.379-63.386-63.386-63.386-0.217 0-0.434 0.001-0.65 0.003h0.033c-0.183-0.002-0.4-0.003-0.617-0.003-35.007 0-63.386 28.379-63.386 63.386 0 0.217 0.001 0.434 0.003 0.65v-0.033c-0.002 0.183-0.003 0.4-0.003 0.617 0 35.007 28.379 63.386 63.386 63.386 0.217 0 0.434-0.001 0.65-0.003h-0.033zM327.352 650.67c-23.016-2.066-43.15-12.958-57.254-29.221l-0.090-0.106-77.292-89.334c-9.957-11.268-17.029-25.308-19.927-40.818l-0.082-0.531-29.348-165.335 84.009-14.664 29.327 165.335 77.332 89.334h1.331l33.341-6.656-50.668-229.335c-1.194-5.33-1.879-11.452-1.879-17.733 0-18.921 6.21-36.392 16.703-50.485l-0.16 0.225 235.991-325.345h105.329l-271.974 376.013 50.647 230.646 20.009-3.994 31.99-112.005c7.83-25.954 26.914-46.342 51.433-55.794l0.586-0.199 126.648-48.005 165.335-373.33 39.997 15.995-169.329 381.338 17.326 46.674-149.32 57.344-33.341 111.985c-8.812 30.649-33.746 53.807-64.797 59.919l-0.534 0.088-138.65 26.665c-7.352 1.331-15.36 1.987-22.692 1.331zM312.689 190.669l-21.32-82.678-124.006-171.991h105.329l98.673 134.676 5.325 25.334-64 94.659z" />
<glyph unicode="&#xe902;" glyph-name="add-phone" horiz-adv-x="1044" d="M776.479 939.52v-176.169h-176.169v-70.472h176.169v-176.169h70.451v176.169h176.189v70.451h-176.169v176.189h-70.472zM200.397 833.618c-18.493 0-36.966-6.042-52.019-18.166l-1.72-1.393-110.797-114.299 2.335 2.212c-36.659-31.58-46.756-81.469-31.027-123.392 29.696-85.606 105.37-251.187 254.689-400.323 149.627-149.811 316.928-222.249 399.688-254.566l1.638-0.532c42.803-14.336 89.027-4.096 122.163 24.228l1.024 0.901 110.121 110.1c29.225 29.225 29.225 80.466 0 109.691l-144.384 144.507c-29.307 29.327-80.507 29.327-109.834 0l-69.919-69.898c-25.027 11.94-86.61 42.926-145.121 98.734-57.754 55.091-87.245 118.764-97.935 143.36l70.451 70.451c30.925 30.925 32.707 84.029-2.949 112.394l3.236-2.97-145.961 149.402-1.638 1.393c-14.036 11.317-32.087 18.166-51.738 18.166-0.099 0-0.197 0-0.296-0.001h0.015zM200.479 763.351c2.499 0 4.977-0.942 7.434-2.826l143.278-146.719 1.72-1.372c-0.41 0.328 1.352-3.072-2.97-7.373l-104.182-104.182 8.049-21.258s39.772-108.134 124.764-189.194c83.579-79.708 186.634-123.249 186.634-123.249l21.955-9.359 104.94 104.96c5.939 5.919 4.26 5.919 10.179 0l144.384-144.527c6.001-6.001 6.001-4.035 0-10.035l-107.336-107.356c-16.343-13.906-33.239-17.551-53.535-10.813-79.708 31.171-235.602 99.369-374.088 238.039-139.489 139.284-211.763 297.554-238.264 374.231l-0.143 0.41-0.205 0.492c-5.325 14.111-1.434 34.57 11.059 45.343l1.188 1.024 107.622 110.94c2.033 1.684 4.644 2.737 7.497 2.826h0.019z" />
<glyph unicode="&#xe903;" glyph-name="add-shopping-cart" d="M41.37 857.6c-22.774 0-41.37-18.596-41.37-41.37 0-22.794 18.596-41.37 41.37-41.37h91.812l108.605-434.442c9.216-36.844 42.189-62.054 80.159-62.054h515.891c37.315 0 68.997 24.74 78.848 60.764l107.315 394.363h-86.63l-99.533-372.347h-515.891l-108.605 434.401c-9.216 36.844-42.189 62.054-80.159 62.054h-91.812zM786.104 278.364c-68.035 0-124.109-56.074-124.109-124.109 0-68.055 56.074-124.129 124.109-124.129s124.109 56.074 124.109 124.109c0 68.055-56.074 124.129-124.109 124.129zM413.737 278.364c-68.035 0-124.109-56.074-124.109-124.109 0-68.055 56.074-124.129 124.109-124.129s124.109 56.074 124.109 124.109c0 68.055-56.074 124.129-124.109 124.129zM537.846 857.6v-124.109h-124.109v-82.76h124.109v-124.109h82.76v124.109h124.109v82.739h-124.109v124.129h-82.739zM413.737 195.625c23.265 0 41.37-18.104 41.37-41.37 0-23.286-18.104-41.37-41.37-41.37-0.159-0.002-0.348-0.004-0.536-0.004-22.554 0-40.837 18.283-40.837 40.837 0 0.188 0.001 0.377 0.004 0.565v-0.029c0 23.265 18.104 41.37 41.37 41.37zM786.104 195.625c23.265 0 41.37-18.104 41.37-41.37 0-23.286-18.104-41.37-41.37-41.37-0.159-0.002-0.348-0.004-0.536-0.004-22.554 0-40.837 18.283-40.837 40.837 0 0.188 0.001 0.377 0.004 0.565v-0.029c0 23.265 18.084 41.37 41.37 41.37z" />
<glyph unicode="&#xe904;" glyph-name="add-tag" d="M447.222 939.52l-11.264-10.138-435.958-440.463 24.781-25.907 342.467-342.487 25.907-24.781 68.71 68.71c38.031-114.893 146.309-198.246 273.756-198.246 158.822 0 288.379 129.536 288.379 288.358 0 126.034-81.818 233.615-194.888 272.63l4.506 4.506 10.138 11.264v396.554h-396.534zM477.635 867.43h294.052v-294.031l-30.413-30.413h-5.632c-158.843 0-288.399-129.556-288.399-288.379v-3.379l-54.067-54.067-291.799 291.738 376.259 378.532zM663.511 795.341c-19.866 0-36.045-16.2-36.045-36.045 0-19.866 16.179-36.065 36.045-36.065s36.045 16.179 36.045 36.045-16.179 36.045-36.045 36.045zM735.601 470.897c119.849 0 216.31-96.461 216.31-216.289 0-119.849-96.461-216.289-216.289-216.289-0.146 0-0.319-0.001-0.492-0.001-119.182 0-215.798 96.616-215.798 215.798 0 0.166 0 0.332 0.001 0.498v-0.026c0 119.849 96.461 216.31 216.269 216.31zM699.556 398.807v-108.155h-108.134v-72.090h108.134v-108.155h72.090v108.134h108.155v72.090h-108.134v108.155h-72.090z" />
<glyph unicode="&#xe905;" glyph-name="add-text" horiz-adv-x="1044" d="M316.662 960l-275.702-787.702h78.766l82.616 236.319h196.608c-26.91-45.097-42.843-99.447-42.906-157.514v-0.018c0-173.24 141.824-315.085 315.064-315.085s315.085 141.844 315.085 315.085c0 173.22-141.844 315.064-315.085 315.064-45.67 0-88.924-9.994-128.143-27.689l-147.538 421.54h-78.766zM356.045 847.38l121.856-348.16c-5.409-4.283-10.022-8.156-14.529-12.147l0.357 0.31h-233.677l125.993 359.997zM671.109 487.383c130.007 0 236.319-106.291 236.319-236.298s-106.312-236.319-236.319-236.319c-129.987 0-236.298 106.312-236.298 236.319 0 129.987 106.291 236.298 236.298 236.298zM631.726 408.617v-118.17h-118.17v-78.746h118.17v-118.17h78.766v118.17h118.17v78.766h-118.17v118.149h-78.766z" />
<glyph unicode="&#xe906;" glyph-name="aed" d="M274.289 898.56c-151.286 0-274.289-124.436-274.289-274.289 0-52.285 23.716-97.567 45.711-130.273 21.996-32.727 44.564-53.719 44.564-53.719l421.724-422.871 26.276 26.296 395.448 396.575s90.276 79.565 90.276 183.992c0 149.852-123.003 274.289-274.289 274.289-125.563 0-206.438-75.571-237.711-107.438-31.293 31.867-112.148 107.438-237.711 107.438zM274.289 825.426c109.281 0 210.289-106.291 210.289-106.291l27.423-30.863 27.443 30.863s100.966 106.291 210.268 106.291c111.288 0 201.155-91.3 201.155-201.155 0-56.422-68.588-132.567-68.588-132.567l-370.278-370.278-370.278 370.278s-17.715 16.998-35.43 43.418-33.157 60.867-33.157 89.149c0 109.855 89.866 201.155 201.155 201.155zM251.433 684.851l-53.719-50.299 164.577-177.152 29.696-30.843 26.296 34.284 33.137 44.585 89.149-90.296-65.126-65.126h182.845v182.845l-65.126-65.126-120.013 118.845-29.716 29.696-25.149-33.137-31.99-43.418-134.861 145.142z" />
<glyph unicode="&#xe907;" glyph-name="aids-ribbon" d="M519.68 960c-88.637 0-149.77-29.45-149.77-29.45l-8.95-3.83-6.41-8.97s-56.156-78.541-79.36-195.83l-1.27-3.85v-3.83c0-18.719 3.195-53.289 15.36-104.96 17.525-73.070 41.241-137.052 71.484-197.187l-2.364 5.187c72.151-146.555 205.435-320.471 442.88-455.68l44.81-25.6 15.36 49.93 66.56 225.28 8.95 33.26-30.72 15.36c-95.355 45.466-167.69 100.332-227.84 157.45 29.901 66.56 55.501 131.85 67.85 180.49 14.705 58.225 19.19 94.863 19.19 116.47v3.85l-1.29 3.83c-23.183 117.289-79.34 195.85-79.34 195.85l-6.41 8.95-8.97 3.85s-61.112 29.43-149.75 29.43zM519.68 878.080c32.973 0 58.245-4.485 75.53-8.97-1.618-11.674-3.379-24.781-6.41-39.67-22.733 4.649-45.752 7.68-69.12 7.68-23.204 0-46.408-1.761-69.12-6.41-2.089 12.657-2.867 24.494-3.85 34.57 18.596 6.246 27.238 12.8 72.97 12.8zM382.71 787.19c33.935-156.303 134.738-415.662 456.97-583.68l-42.25-140.78c-192.143 121.59-303.677 267.674-364.79 391.66-33.116 67.052-53.125 127.693-64 174.080-10.568 44.974-12.636 76.001-12.8 83.21 6.554 31.191 17.613 52.49 26.89 75.53zM661.75 782.070c7.7-20.316 15.852-42.701 21.77-70.39-0.164-4.485-3.523-42.885-16.65-94.72-9.114-36.475-31.334-86.876-51.2-135.68-17.756 21.115-33.116 43.213-47.35 64 49.766 87.204 77.435 170.557 93.45 236.81zM519.68 755.2c17.121 0 33.751-1.761 49.93-5.12-11.674-37.601-28.324-79.36-49.93-122.88-22.569 44.319-40.325 85.606-51.2 122.88 16.486 3.523 33.751 5.12 51.2 5.12zM316.15 367.35c-49.91-39.977-105.411-70.554-183.030-107.52l-30.72-15.36 90.89-308.47 44.79 25.6c109.281 62.259 178.565 117.596 236.81 180.49-17.744 19.071-35.33 39.495-52.122 60.579l-1.638 2.13c-46.572-51.671-99.697-96.809-179.2-145.92l-42.25 142.090c62.075 30.556 111.821 58.388 157.45 93.43-15.36 24.33-28.652 49.439-40.96 72.97z" />
<glyph unicode="&#xe908;" glyph-name="alarm-clock" horiz-adv-x="1044" d="M256 939.52c-111.134-56.676-199.324-144.866-254.489-252.746l-1.511-3.254 72.97-35.84c48.371 95.081 123.794 170.511 216.089 217.602l2.781 1.288-35.84 72.95zM768 939.52l-35.84-72.97c95.081-48.371 170.511-123.794 217.602-216.089l1.288-2.781 72.95 35.84c-56.676 111.134-144.866 199.324-252.746 254.489l-3.254 1.511zM512 878.080c-248.32 0-450.56-202.24-450.56-450.56 0-0.196 0-0.428 0-0.66 0-121.054 47.811-230.94 125.581-311.807l-0.14 0.147-85.77-135.68 69.14-43.52 79.38 125.44c72.677-52.809 163.686-84.48 262.092-84.48 0.097 0 0.195 0 0.292 0h-0.015c97.608 0 188.477 31.355 262.41 84.48l78.049-125.44 69.14 43.52-84.48 135.68c77.629 80.72 125.44 190.606 125.44 311.66 0 0.232 0 0.464-0.001 0.696v-0.036c0 248.32-202.24 450.56-450.56 450.56zM512 796.16c203.981 0 368.64-164.659 368.64-368.64s-164.659-368.64-368.64-368.64-368.64 164.659-368.64 368.64 164.659 368.64 368.64 368.64zM471.040 714.24v-327.68h245.76v81.92h-163.84v245.76h-81.92z" />
<glyph unicode="&#xe909;" glyph-name="alluminium_massagetable" horiz-adv-x="1044" d="M72.008 693.76c-38.748 0-72.008-31.13-72.008-70.369v-121.631h256v-320h64v50.749l109.24 109.24h357.519l109.24-109.24v-50.749h64v320h64v121.631c0 39.24-33.26 70.369-72.008 70.369h-687.985c-14.623 0-28.508-4.506-40.018-12.001-11.268 7.476-25.095 11.947-39.963 12.001h-112.019zM72.008 629.76h111.985c5.509 0 8.008-3.133 8.008-6.369v-57.631h-128v57.631c0 3.236 2.499 6.369 7.987 6.369zM264.008 629.76h687.985c5.509 0 8.008-3.133 8.008-6.369v-57.631h-704v57.631c0 3.236 2.499 6.369 7.987 6.369zM354.509 501.76h144.241l-80.118-80.118-64.123 80.118zM589.251 501.76h37.499l96.010-96.010h-229.519l96.010 96.010zM717.251 501.76h144.241l-64.102-80.118-80.138 80.118zM320 442.511l53.125-66.376-53.125-53.125v119.501zM896 442.511v-119.501l-53.125 53.125 53.125 66.355z" />
<glyph unicode="&#xe90a;" glyph-name="alphabetical-sorting" horiz-adv-x="1044" d="M141.926 939.52l-9.748-29.225-86.262-237.896h-1.393v-2.785l-41.738-115.487-2.785-6.963v-52.859h89.047v37.56l18.084 51.487h141.926l18.063-51.487v-37.56h89.047v52.859l-2.785 6.963-41.738 115.487v2.785h-1.393l-86.241 237.896-9.748 29.225h-72.356zM756.879 939.52v-832l-115.507 115.487-62.587-62.607 190.607-192 31.99-30.618 32.010 30.618 190.607 192-62.607 62.607-115.487-115.487v832h-89.027zM178.094 776.745l37.56-104.346h-75.162l37.581 104.346zM0 405.258v-89.047h247.644l-235.11-235.11-12.534-13.926v-107.131h356.168v89.047h-247.624l235.11 235.11 12.534 13.926v107.131h-356.188z" />
<glyph unicode="&#xe90b;" glyph-name="alphabetical-sorting-2" horiz-adv-x="1044" d="M0 939.52v-89.047h247.644l-235.11-235.11-12.534-13.926v-107.131h356.168v89.047h-247.624l235.11 235.11 12.534 13.926v107.131h-356.188zM756.879 939.52v-832l-115.507 115.487-62.587-62.607 190.607-192 31.99-30.618 32.010 30.618 190.607 192-62.607 62.607-115.487-115.487v832h-89.027zM141.906 405.258l-9.728-29.225-86.262-237.896h-1.393v-2.785l-41.738-115.487-2.785-6.963v-52.859h89.047v37.56l18.084 51.487h141.926l18.063-51.487v-37.56h89.047v52.859l-2.785 6.963-41.738 115.487v2.785h-1.393l-86.241 237.896-9.748 29.225h-72.356zM178.094 242.483l37.56-104.346h-75.162l37.581 104.346z" />
<glyph unicode="&#xe90c;" glyph-name="ambulance" d="M580.26 878.080c-0.012 0-0.027 0-0.041 0-37.676 0-68.219-30.543-68.219-68.219 0-0.014 0-0.029 0-0.043v0.002-34.14h-512v-648.54h107.725c15.217-58.655 67.994-102.4 131.215-102.4 63.201 0 115.999 43.745 131.195 102.4h283.73c15.196-58.655 67.994-102.4 131.195-102.4s115.999 43.745 131.215 102.4h107.725v388.28l-8.54 9.585-204.8 238.94-9.585 11.735h-152.535v34.14c0 0.012 0 0.027 0 0.041 0 37.676-30.543 68.219-68.219 68.219-0.022 0-0.043 0-0.065 0h0.003zM68.26 707.42h700.826l186.655-217.6v-294.4h-39.465c-15.217 58.655-67.994 102.4-131.215 102.4-63.201 0-115.999-43.745-131.195-102.4h-283.73c-15.196 58.655-67.994 102.4-131.195 102.4s-115.999-43.745-131.215-102.4h-39.465v512zM443.74 605.020v-102.4h-102.4v-68.28h102.4v-102.4h68.26v102.4h102.4v68.28h-102.4v102.4h-68.26zM238.94 229.54c0.159 0.001 0.347 0.002 0.535 0.002 37.405 0 67.727-30.323 67.727-67.727 0-0.188-0.001-0.376-0.002-0.563v0.029c0.001-0.159 0.002-0.347 0.002-0.535 0-37.405-30.323-67.727-67.727-67.727-0.188 0-0.376 0.001-0.563 0.002h0.029c-0.165-0.001-0.36-0.002-0.555-0.002-37.405 0-67.727 30.323-67.727 67.727 0 0.188 0.001 0.376 0.002 0.564v-0.029c-0.001 0.159-0.002 0.347-0.002 0.535 0 37.405 30.323 67.727 67.727 67.727 0.195 0 0.39-0.001 0.585-0.002h-0.030zM785.060 229.54c0.165 0.001 0.36 0.002 0.555 0.002 37.405 0 67.727-30.323 67.727-67.727 0-0.188-0.001-0.376-0.002-0.564v0.029c0.001-0.159 0.002-0.347 0.002-0.535 0-37.405-30.323-67.727-67.727-67.727-0.195 0-0.39 0.001-0.585 0.002h0.030c-0.159-0.001-0.347-0.002-0.535-0.002-37.405 0-67.727 30.323-67.727 67.727 0 0.188 0.001 0.376 0.002 0.563v-0.029c-0.001 0.159-0.002 0.347-0.002 0.535 0 37.405 30.323 67.727 67.727 67.727 0.188 0 0.376-0.001 0.563-0.002h-0.029z" />
<glyph unicode="&#xe90d;" glyph-name="amnesty_international" d="M613.417 960c11.837-39.383-144.773-74.609-192-180.92-19.702-39.383-12.616-78.766 11.059-118.17 21.852-25.068 51.098-40.305 80.015-55.378h-103.383c-23.695 0-39.383-15.688-39.383-39.383v-54.149c-32.182-12.106-58.143-23.708-83.341-36.592l4.575 2.124-12.308 45.548-9.851-59.085c-1.843-1.065-3.379-1.536-4.915-2.458l-59.085 22.159 39.383-43.090 8.602-13.517 11.1-61.542 23.368 50.442 50.463-11.059-24.617 29.532c16.179 7.987 35.226 17.224 56.627 25.846v-171.069c-15.995-3.543-31.232-7.7-45.548-12.308-0.922-0.307-1.536-0.922-2.458-1.229l-11.059 41.841-19.702-50.463-62.771 3.686 31.99-24.617c-2.908-2.15-6.001-4.915-8.602-7.373-19.251-17.408-32.010-42.168-32.010-70.164 0-43.213 28.918-77.066 65.229-97.219 24.617-13.701 54.149-23.081 84.931-29.553v-39.383c0-19.681 15.995-35.389 35.697-39.383l236.298-27.075h3.686c19.702 0 39.404 15.688 39.404 39.383v67.686c29.386 4.011 50.318 7.465 71.105 11.332l-9.583-1.482-2.458-38.154 35.697 39.383 59.085-19.681-32.010 46.756-3.686 8.622v55.378l-39.383-39.383-43.090 23.388 14.766-30.761c-15.073-2.785-31.99-4.628-50.463-7.373v198.144c13.394 3.215 26.010 6.922 38.154 11.059 3.072 1.085 5.53 2.621 8.622 3.686l8.602-49.213 30.781 59.085 59.085-3.686-33.239 30.761c18.253 18.088 29.554 43.165 29.554 70.882 0 0.173 0 0.345-0.001 0.517v-0.026c0 20.316-8.786 37.54-20.931 52.92l33.239 9.851-62.771 24.617-4.915 62.771-34.468-48.005c-7.040 3.15-16.825 6.905-26.789 10.27l-2.764 0.81 17.244 40.612c0 23.695-19.702 39.383-39.383 39.383h-110.797c-0.614 18.637 3.092 38.769 16.015 51.692 51.241 63.078 114.77 140.78 91.075 211.702-7.844 35.369-32.297 71.373-67.686 91.075zM623.247 887.378c0.942 0.164 1.556-0.451 2.458-2.458 35.41-70.922-62.751-122.143-82.452-177.234-11.837-27.525-8.602-47.514-8.602-75.080l-34.468 35.697c-31.539 39.383-20.152 82.78 7.373 118.17 23.716 27.525 90.173 43.991 105.861 87.368 2.929 5.857 6.922 13.23 9.83 13.537zM448.512 526.766h180.92v-55.378l-15.995-50.463-7.373-15.995v-82.473c-12.022-1.843-24.474-3.379-36.946-4.915l4.915 48.005-43.069-48.005-55.378 35.697 18.473-45.548c-15.401-1.843-30.474-4.157-45.548-6.144v225.219zM720.507 470.159c4.465-2.007 9.544-4.157 13.537-6.144l-17.244-51.732 43.069 34.468c13.537-11.387 19.702-22.159 19.702-34.468 0-13.066-3.994-21.996-11.080-30.761l-17.224 30.761-2.458-48.005c-3.686-2.458-6.779-5.059-11.080-7.373l-49.234 19.681 22.159-30.761c-0.942-0.307-1.556-0.922-2.458-1.229-7.25-2.458-15.401-3.994-23.388-6.144v54.149l19.681 62.771v13.517l15.995 1.229zM606.044 275.702v-257.229l-157.532 19.681v216.617c15.688 2.314 31.703 4.157 48.005 6.144l-4.915-45.527 51.671 43.069 50.463-30.761-17.224 44.298c9.83 1.229 19.866 2.314 29.532 3.686zM369.746 240.005v-148.931c-23.552 5.857-45.076 13.087-61.542 22.159-27.689 15.38-40.612 31.683-40.612 55.378 0 15.237 4.608 25.231 15.995 35.697 0.614 0.451 1.843 0.778 2.458 1.229l8.622-33.239 23.388 51.692 51.692-8.602-19.702 19.681c6.308 1.843 12.923 3.4 19.702 4.915z" />
<glyph unicode="&#xe90e;" glyph-name="amputee" d="M521.277 960c-82.002 0-149.34-67.338-149.34-149.34s67.338-149.32 149.34-149.32 149.34 67.318 149.34 149.32c0 82.002-67.338 149.34-149.34 149.34zM521.277 661.34h-36.004c-73.318 0-138.158-47.841-161.321-117.35l-98.673-295.997 79.995-26.665 88.003 260.014v-545.341h85.34v298.66h85.32v-85.32h85.34v331.981l88.003-259.973 79.995 26.665-98.652 295.997c-23.183 69.509-88.003 117.35-161.341 117.35h-36.004zM521.277 874.66c0.183 0.002 0.4 0.003 0.617 0.003 35.007 0 63.386-28.379 63.386-63.386 0-0.217-0.001-0.434-0.003-0.65v0.033c0.002-0.183 0.003-0.4 0.003-0.617 0-35.007-28.379-63.386-63.386-63.386-0.217 0-0.434 0.001-0.65 0.003h0.033c-0.183-0.002-0.4-0.003-0.617-0.003-35.007 0-63.386 28.379-63.386 63.386 0 0.217 0.001 0.434 0.003 0.65v-0.033c-0.002 0.183-0.003 0.4-0.003 0.617 0 35.007 28.379 63.386 63.386 63.386 0.217 0 0.434-0.001 0.65-0.003h-0.033zM478.618 576c2.171 0.164 4.321 0 6.656 0h72.008c2.335 0 4.506 0.164 6.656 0v-256h-85.32v256z" />
<glyph unicode="&#xe90f;" glyph-name="angle-down" horiz-adv-x="1044" d="M55.685 714.24l-55.685-55.685 484.147-484.147 27.853-26.624 27.853 26.624 484.147 484.127-55.685 55.706-456.315-456.315z" />
<glyph unicode="&#xe910;" glyph-name="angle-left" d="M735.908-64l-480.584 480.604-30.044 31.396 30.044 31.396 480.584 480.604 62.812-62.812-449.188-449.188 449.188-449.188z" />
<glyph unicode="&#xe911;" glyph-name="angle-right" d="M288.092-64l-62.812 62.812 449.188 449.188-449.188 449.188 62.812 62.812 480.584-480.604 30.044-31.396-30.044-31.396z" />
<glyph unicode="&#xe912;" glyph-name="angle-up" d="M512 734.72l-27.853-26.624-484.147-484.147 55.685-55.706 456.315 456.335 456.315-456.335 55.685 55.706-484.147 484.147z" />
<glyph unicode="&#xe913;" glyph-name="antiseptic-cream" d="M184.32 960v-85.34c0-385.331 122.839-716.657 128-730.665v-122.675c0-46.653 38.666-85.32 85.34-85.32h256c46.653 0 85.32 38.666 85.32 85.34v122.675c5.181 13.988 128 345.313 128 730.644v85.34h-682.66zM269.66 874.66h512c0-272.486-65.167-522.834-101.335-640h-309.33c-36.168 117.166-101.335 367.514-101.335 640zM482.98 746.66v-85.32h-85.32v-85.34h85.32v-85.34h85.34v85.34h85.34v85.34h-85.34v85.32h-85.34zM397.66 149.34h256v-128h-256v128z" />
<glyph unicode="&#xe914;" glyph-name="apple" horiz-adv-x="1044" d="M259.133 960c-13.005-0.205-20.808-1.393-20.808-1.393l-45.814-4.178 5.55-45.773s10.936-101.478 83.251-176.23c-146.719-22.733-260.833-143.77-260.833-291.369 0-159.232 70.943-285.491 154.010-370.483 41.452-42.496 85.504-74.568 127.652-97.116s80.835-36.086 117.965-36.086c24.269 0 47.862 4.157 69.366 11.1 5.798 1.979 12.478 3.122 19.425 3.122s13.627-1.143 19.862-3.25l-0.437 0.128c21.504-6.943 45.097-11.1 69.366-11.1 40.243 0 78.93 16.998 120.73 43.008 41.779 26.010 85.32 62.095 126.259 106.844 81.859 89.334 152.617 213.34 152.617 353.833 0 163.901-141.005 295.526-310.804 295.526-45.609 0-87.757-11.080-126.259-29.123-0.164 1.229-1.024 3.277-1.393 5.53 22.733 118.477 105.472 162.365 105.472 162.365l-44.442 77.681s-62.607-37.642-108.216-117.965c-15.974 24.107-34.807 44.711-56.372 62.058l-0.521 0.406c-70.39 56.218-156.774 62.792-195.625 62.444zM302.141 865.628c30.72-4.669 68.69-14.746 97.137-37.458 28.959-23.060 48.394-56.893 59.658-86.016-30.863 4.506-69.55 15.77-98.509 38.851-28.611 22.876-47.002 55.665-58.286 84.623zM331.284 647.782c57.754 0 109.097-20.972 148.48-54.108l29.123-23.593 29.143 23.593c39.646 33.648 91.403 54.109 147.939 54.109 0.19 0 0.38 0 0.571-0.001h-0.029c124.518 0 222.003-93.819 222.003-206.725 0-110.141-57.754-216.474-129.044-294.175-35.553-38.851-74.24-69.202-108.237-90.173-33.997-20.992-64.86-30.515-73.523-30.515-14.582 0-28.283 2.58-41.636 6.922-14.092 4.701-30.317 7.414-47.176 7.414s-33.084-2.712-48.263-7.724l1.087 0.311c-12.407-4.31-26.709-6.844-41.59-6.942h-0.046c-11.96 0-42.66 6.943-76.308 24.986-33.649 18.022-71.803 45.957-106.844 81.859-70.062 71.803-127.652 174.838-127.652 308.019 0 112.927 97.485 206.746 222.003 206.746z" />
<glyph unicode="&#xe915;" glyph-name="appointment-reminders" horiz-adv-x="1044" d="M516.71 960c-0.006 0-0.013 0-0.020 0-43.479 0-78.725-35.246-78.725-78.725 0-0.014 0-0.029 0-0.043v0.002c0-3.379 0.758-6.615 1.229-9.83-136.151-34.796-237.548-158.474-237.548-305.254v-354.447c0.004-0.209 0.006-0.455 0.006-0.702 0-21.377-17.33-38.707-38.707-38.707-0.24 0-0.479 0.002-0.718 0.007l0.036-0.001h-39.383v-78.766h283.075c-4.465-12.452-7.373-25.539-7.373-39.383 0-64.758 53.371-118.149 118.149-118.149 64.758 0 118.149 53.391 118.149 118.17 0 13.824-2.929 26.911-7.373 39.363h283.075v78.766h-39.404c-0.203-0.004-0.442-0.006-0.682-0.006-21.377 0-38.707 17.33-38.707 38.707 0 0.247 0.002 0.493 0.007 0.739l-0.001-0.037v343.368c0 148.009-98.918 280.003-237.527 316.314 0.451 3.236 1.229 6.472 1.229 9.83 0 0.018 0 0.040 0 0.061 0 43.479-35.246 78.725-78.725 78.725-0.022 0-0.043 0-0.065 0h0.003zM499.507 802.468c5.673 0.451 11.366 0 17.203 0h7.393c128.614-3.85 228.925-116.613 228.925-247.398v-343.368c0-13.865 2.929-26.931 7.373-39.404h-487.342c4.465 12.472 7.373 25.539 7.373 39.404v354.447c0 125.092 96.317 227.389 219.075 236.319zM516.71 93.532c22.159 0 39.404-17.224 39.404-39.383 0.002-0.153 0.003-0.334 0.003-0.515 0-21.468-17.403-38.871-38.871-38.871-0.181 0-0.362 0.001-0.543 0.004h0.027c-0.153-0.002-0.334-0.003-0.515-0.003-21.468 0-38.871 17.403-38.871 38.871 0 0.181 0.001 0.362 0.004 0.543v-0.027c0 22.159 17.224 39.383 39.383 39.383z" />
<glyph unicode="&#xe916;" glyph-name="arrow" d="M542.679 48.947v229.827h-542.679v308.019h542.679v229.847l62.566-49.336 418.755-334.52-37.294-30.085-381.46-304.415-62.566-49.357zM619.684 208.978l281.6 223.805-281.6 223.826v-146.801h-542.679v-154.010h542.72v-146.821z" />
<glyph unicode="&#xe917;" glyph-name="arrow-pointing-left" d="M480.911 69.734l-480.911 383.672 37.704 30.044 443.187 353.669v-229.868h542.29v-307.671h-542.269v-229.868zM403.988 229.417v147.108h542.269v153.805h-542.269v147.067l-280.719-223.969 280.719-224.010z" />
<glyph unicode="&#xe918;" glyph-name="arrows-long-down" d="M470.221 960v-859.341l-183.357 183.357-61.583-60.211 287.785-287.805 287.805 287.785-61.583 60.232-183.378-183.378v859.361z" />
<glyph unicode="&#xe919;" glyph-name="arrows-long-left" d="M287.785 159.13l-287.785 287.805 287.785 287.785 60.232-61.583-183.357-183.357h859.341v-85.668h-859.341l183.357-183.378z" />
<glyph unicode="&#xe91a;" glyph-name="arrows-long-right" d="M736.215 159.13l-60.232 61.583 183.378 183.378h-859.361v85.688h859.341l-183.357 183.378 60.211 61.563 287.805-287.785z" />
<glyph unicode="&#xe91b;" glyph-name="arrows-long-up" d="M513.065 960l-287.785-287.785 61.583-60.232 183.357 183.357v-859.341h85.668v859.341l183.378-183.357 61.583 60.211z" />
<glyph unicode="&#xe91c;" glyph-name="assistive_listening_systems" d="M829.194 960l-43.704-66.191c62.958-41.332 113.94-95.909 149.914-160.040l1.188-2.305 69.919 38.707c-43.623 77.734-103.449 141.562-175.275 188.576l-2.041 1.253zM761.754 860.099l-44.954-66.191c48.087-33.239 87.572-72.274 116.122-122.368l68.69 39.936c-35.267 61.85-84.132 110.060-139.858 148.623zM519.475 815.145c-0.17 0-0.372 0.001-0.574 0.001-176.233 0-319.099-142.865-319.099-319.099 0-0.209 0-0.418 0.001-0.627v0.032h79.933c0 134.717 105.062 239.759 239.759 239.759 134.717 0 239.759-105.062 239.759-239.759 0-89.764-26.071-138.772-54.948-187.31s-64.922-99.123-64.922-172.339c-0.012-66.209-53.681-119.878-119.889-119.89h-0.001v-79.913c109.732 0 199.803 90.071 199.803 199.803 0 46.694 23.88 78.848 54.948 131.133s64.922 122.532 64.922 228.516c0 177.009-142.664 319.693-319.693 319.693zM519.475 695.255c-109.711 0-199.782-90.071-199.782-199.803h79.913c0.012 66.209 53.681 119.878 119.889 119.89h0.001c66.209-0.012 119.878-53.681 119.89-119.889v-0.001h79.913c0 109.732-90.071 199.803-199.803 199.803zM519.475 495.452c-22.040-0.058-39.89-17.915-39.936-39.952v-0.005c0-22.016 17.94-39.956 39.936-39.956 22.050 0.035 39.919 17.889 39.977 39.93v0.006c-0.035 22.057-17.901 39.93-39.952 39.977h-0.004zM399.606 375.562c-22.041-0.046-39.898-17.896-39.956-39.93v-0.006c0-22.036 17.961-39.977 39.956-39.977 22.049 0.047 39.91 17.908 39.956 39.952v0.004c-0.046 22.041-17.896 39.898-39.93 39.956h-0.006zM248.504 298.148l-47.452-48.701 112.394-112.394 48.701 47.452-113.644 113.644zM159.826 135.803c-22.040-0.058-39.89-17.915-39.936-39.952v-0.005c0-22.016 17.94-39.956 39.936-39.956 22.050 0.035 39.919 17.889 39.977 39.93v0.006c-0.035 22.057-17.901 39.93-39.952 39.977h-0.004zM39.956 15.913c-22.041-0.046-39.898-17.896-39.956-39.93v-0.006c0-22.036 17.961-39.977 39.956-39.977 22.049 0.047 39.91 17.908 39.956 39.952v0.004c-0.046 22.041-17.896 39.898-39.93 39.956h-0.006z" />
<glyph unicode="&#xe91d;" glyph-name="attention" horiz-adv-x="1044" d="M512 960c-282.317 0-512-229.683-512-512s229.683-512 512-512 512 229.683 512 512-229.683 512-512 512zM512 881.234c239.698 0 433.234-193.536 433.234-433.234s-193.536-433.234-433.234-433.234-433.234 193.536-433.234 433.234 193.536 433.234 433.234 433.234zM472.617 684.298v-315.064h78.766v315.064h-78.766zM472.617 290.468v-78.766h78.766v78.766h-78.766z" />
<glyph unicode="&#xe91e;" glyph-name="audio-description" d="M131.42 775.68l-11.428-10.281s-119.992-121.446-119.992-318.874 120.013-318.833 120.013-318.833l11.407-10.281h761.16l11.428 10.281s119.992 121.446 119.992 318.874-120.013 318.833-120.013 318.833l-11.387 10.281h-761.18zM165.724 702.546h692.552c12.288-13.005 92.57-99.86 92.57-256 0-156.16-80.282-243.016-92.57-256h-692.552c-12.288 12.984-92.57 99.84-92.57 256 0 156.14 80.282 242.995 92.57 256zM306.278 592.814l-146.289-292.557h82.289l18.289 36.557h68.567v-36.557h73.155c80.425 0 146.289 65.843 146.289 146.289 0 80.425-65.864 146.268-146.289 146.268h-96.010zM510.874 592.814c44.851-33.28 74.26-86.282 74.26-146.268 0-60.006-29.43-113.009-74.281-146.289h101.724c28.601 40.563 45.713 91.012 45.713 145.458 0 0.292 0 0.584-0.001 0.876v-0.045c0 54.415-16.712 104.714-45.711 146.268h-101.724zM654.848 592.814c25.006-43.131 40.018-92.979 40.018-146.268s-15.012-103.158-40.018-146.289h82.289c19.419 43.057 30.772 93.336 30.863 146.255v0.034c0 51.999-11.141 101.417-30.863 146.268h-82.289zM777.134 592.814c17.368-43.084 27.444-93.042 27.444-145.354 0-0.321 0-0.643-0.001-0.964v0.050c0-51.589-9.585-100.864-27.443-146.289h77.722c14.494 43.35 22.857 93.262 22.857 145.128 0 0.408-0.001 0.816-0.002 1.224v-0.063c0 50.995-7.864 100.147-22.856 146.268h-77.722zM402.289 519.68c0.171 0.001 0.373 0.002 0.576 0.002 40.074 0 72.561-32.487 72.561-72.561 0-0.202-0.001-0.405-0.002-0.607v0.031c0.002-0.177 0.002-0.387 0.002-0.596 0-40.074-32.487-72.561-72.561-72.561-0.202 0-0.405 0.001-0.607 0.002h0.031v146.289zM329.134 473.969v-64h-31.969l31.99 64z" />
<glyph unicode="&#xe91f;" glyph-name="average" d="M433.234 878.080c-238.776 0-433.234-194.458-433.234-433.234 0-238.756 194.458-433.234 433.234-433.234 26.911 0 53.228 2.621 78.766 7.373 25.539-4.751 51.692-7.373 78.766-7.373 238.776 0 433.234 194.478 433.234 433.234 0 238.776-194.458 433.234-433.234 433.234-27.075 0-53.228-2.621-78.766-7.373-23.67 4.664-50.896 7.346-78.745 7.373h-0.021zM433.234 799.314c196.157 0 354.468-158.31 354.468-354.468s-158.31-354.468-354.468-354.468-354.468 158.31-354.468 354.468 158.31 354.468 354.468 354.468zM708.915 778.383c137.851-48.62 236.319-178.77 236.319-333.537s-98.468-284.918-236.319-333.537c96.317 79.544 157.553 199.229 157.553 333.537s-61.235 253.993-157.553 333.537zM393.851 641.782c0.002-0.189 0.003-0.413 0.003-0.637 0-43.162-34.99-78.152-78.152-78.152-0.217 0-0.434 0.001-0.65 0.003h0.033v-78.766c28.918 0 55.378 8.458 78.766 22.159v-179.692h-78.766v-78.766h236.298v78.766h-78.766v315.085h-78.787z" />
<glyph unicode="&#xe920;" glyph-name="average-2" d="M433.234 878.080c-238.776 0-433.234-194.458-433.234-433.234 0-238.756 194.458-433.234 433.234-433.234 26.911 0 53.228 2.621 78.766 7.373 25.539-4.751 51.692-7.373 78.766-7.373 238.776 0 433.234 194.478 433.234 433.234 0 238.776-194.458 433.234-433.234 433.234-27.075 0-53.228-2.621-78.766-7.373-23.67 4.664-50.896 7.346-78.745 7.373h-0.021zM433.234 799.314c196.157 0 354.468-158.31 354.468-354.468s-158.31-354.468-354.468-354.468-354.468 158.31-354.468 354.468 158.31 354.468 354.468 354.468zM708.915 778.383c137.851-48.62 236.319-178.77 236.319-333.537s-98.468-284.918-236.319-333.537c96.317 79.544 157.553 199.229 157.553 333.537s-61.235 253.993-157.553 333.537zM393.851 681.165v-46.797c-45.548-16.466-78.766-59.843-78.766-110.776 0-64.758 53.371-118.149 118.149-118.149 0.203 0.004 0.442 0.006 0.681 0.006 21.377 0 38.707-17.33 38.707-38.707 0-0.233-0.002-0.465-0.006-0.696v0.035c0.004-0.203 0.006-0.442 0.006-0.682 0-21.377-17.33-38.707-38.707-38.707-0.24 0-0.479 0.002-0.718 0.007l0.036-0.001c-0.209-0.004-0.455-0.006-0.702-0.006-21.377 0-38.707 17.33-38.707 38.707 0 0.24 0.002 0.479 0.007 0.718l-0.001-0.036h-78.766c0-50.913 33.219-94.31 78.766-110.776v-46.756h78.766v46.735c45.527 16.466 78.766 59.863 78.766 110.776 0 64.778-53.391 118.17-118.17 118.17-0.197-0.004-0.429-0.006-0.661-0.006-21.377 0-38.707 17.33-38.707 38.707 0 0.232 0.002 0.464 0.006 0.696v-0.035c-0.004 0.203-0.006 0.442-0.006 0.682 0 21.377 17.33 38.707 38.707 38.707 0.24 0 0.479-0.002 0.718-0.007l-0.036 0.001c0.203 0.004 0.442 0.006 0.682 0.006 21.377 0 38.707-17.33 38.707-38.707 0-0.24-0.002-0.479-0.007-0.718l0.001 0.036h78.766c0 50.934-33.239 94.31-78.766 110.776v46.776h-78.766z" />
<glyph unicode="&#xe921;" glyph-name="ball-point-pen" horiz-adv-x="1044" d="M640.512 960c-31.334-0.164-61.85-12.288-84.378-37.069-0.328-0.328 0.307-0.963 0-1.29-50.34-50.647-69.837-100.987-86.938-145.736-7.352-19.333-14.705-37.54-24.289-56.238-18.842 21.709-46.019 35.779-76.698 35.779-55.931 0-102.277-46.326-102.277-102.257s46.346-102.277 102.277-102.277c30.351 0 56.566 14.377 75.428 35.799l2.56-2.56-373.309-372.019-11.489-12.78v-162.365l-40.919-42.189 57.528-57.528 42.189 40.919h162.365l12.78 11.51 678.83 680.1c47.145 47.145 47.145 124.17 0 171.315l-49.869 49.848c-21.844 22.089-52.145 35.776-85.643 35.799h-0.004c-29.245 0-57.692-11.346-80.548-31.949l-29.389 28.119c-24.125 24.125-56.422 37.233-88.207 37.069zM641.782 878.182c10.076-0.164 20.931-4.301 29.409-12.78l28.119-28.14-250.573-249.283c55.46 58.819 79.913 113.459 97.157 158.515 17.592 46.039 28.611 79.749 67.768 118.907l2.56 2.56c6.062 6.861 15.503 10.383 25.559 10.22zM838.656 846.234c9.585 0 19.026-3.686 28.119-12.8l49.869-49.848c18.227-18.227 18.227-38.031 0-56.259l-37.069-35.799-104.837 104.837 31.949 31.949 3.85 5.12c9.114 9.114 18.534 12.78 28.119 12.78zM715.94 737.567l104.817-104.858-309.371-309.33-104.837 104.817 309.391 309.391zM368.189 673.628c11.837 0 20.48-8.602 20.48-20.439s-8.643-20.48-20.48-20.48c-11.817 0-20.439 8.643-20.439 20.48 0 11.817 8.622 20.439 20.46 20.439zM347.75 369.377l104.837-104.837-204.554-204.534h-104.817v104.817l204.534 204.554z" />
<glyph unicode="&#xe922;" glyph-name="banana" horiz-adv-x="1044" d="M968.335 960c-37.069-28.16-61.972-54.682-76.39-85.443-1.434-3.072-0.143-5.98-1.29-9.052l-1.29 1.29c-8.745-19.415-14.725-25.395-18.125-28.467-3.4-3.092-6.636-5.53-19.415-10.383-25.395-9.708-73.318-27.832-141.107-89.313-52.429-47.575-86.733-115.22-126.874-182.538s-84.296-134.963-146.289-182.538c-71.188-54.682-134.308-76.206-194.171-95.785-59.884-19.579-119.91-36.413-170.885-84.152-17.162-16.179-27.996-34.796-41.431-54.374s-24.576-36.25-24.576-36.25l-6.492-10.322v-64.737l14.234-12.943c23.306-20.726 91.914-78.991 196.772-78.991 567.665 0 783.217 375.603 783.217 599.388 0 131.4-25.088 210.371-31.068 256.328-3.072 22.979-2.109 34.939 3.891 47.882 5.98 12.943 20.378 30.433 51.773 54.374l-50.483 66.028zM885.473 752.865c9.708-54.047 25.907-113.746 25.907-217.498 0-169.574-169.103-516.506-700.375-516.506-47.882 0-81.879 14.868-106.148 31.068 324.936 12.452 645.98 222.659 727.552 521.708l-40.141 10.342c-76.042-278.651-384.164-480.911-693.883-490.639 0.492 0.819 0.819 0.492 1.29 1.311 12.636 18.432 31.396 41.574 29.778 40.141 33.833 31.703 78.479 45.937 139.817 66.007s137.216 47.411 218.788 110.039c76.206 58.573 125.399 134.963 166.994 204.534 41.574 69.591 76.206 132.526 111.329 164.413 60.682 55.009 88.515 62.3 115.22 72.499 1.126 0.492 2.58 2.109 3.891 2.58z" />
<glyph unicode="&#xe923;" glyph-name="bandage" d="M661.914 939.397c-13.824-0.614-25.805-3.686-25.805-3.686l-8.581-3.686-620.052-620.012-3.686-8.602s-3.072-11.96-3.686-25.784c-0.614-13.804 1.085-33.608 7.373-56.484 12.431-45.732 43.909-106.496 116.654-179.261 72.745-72.745 133.53-104.202 179.261-116.634 22.876-6.287 42.66-7.987 56.484-7.373 9.4 0.483 18.23 1.801 26.757 3.888l-0.973-0.201 8.602 3.686 620.012 620.032 3.686 8.602s3.072 11.96 3.686 25.764c0.614 13.824-1.085 33.608-7.373 56.484-12.431 45.732-43.889 106.496-116.634 179.261-72.745 72.745-133.53 104.223-179.261 116.654-22.876 6.287-42.68 7.987-56.484 7.373zM665.6 860.815h1.229c6.144 0.164 16.118-0.922 30.7-4.915 30.228-8.274 79.647-30.372 144.876-95.764l3.686-4.915c61.235-62.607 84.091-110.653 92.078-139.96 3.994-14.582 5.059-24.576 4.915-30.7v-1.229l-586.895-586.895h-1.229c-6.144-0.143-16.118 0.922-30.7 4.915-30.228 8.294-79.667 30.392-144.876 95.764l-4.915 6.144c-60.17 61.85-82.883 109.568-90.87 138.732-3.973 14.582-5.059 24.576-4.915 30.72v1.229l586.916 586.854zM628.736 703.652c-21.675-0.047-39.234-17.605-39.281-39.276v-0.004c0-21.647 17.654-39.281 39.281-39.281 21.684 0.035 39.255 17.598 39.301 39.276v0.004c-0.047 21.683-17.617 39.246-39.298 39.281h-0.003zM746.619 703.652c-21.684-0.035-39.255-17.598-39.301-39.276v-0.004c0-21.647 17.654-39.281 39.301-39.281 21.675 0.047 39.234 17.605 39.281 39.276v0.004c-0.047 21.675-17.605 39.234-39.276 39.281h-0.004zM519.455 594.391l-56.463-56.484 157.164-157.164 56.463 56.484-157.164 157.164zM746.619 585.789c-21.684-0.035-39.255-17.598-39.301-39.276v-0.004c0-21.647 17.654-39.301 39.301-39.301 21.683 0.047 39.246 17.617 39.281 39.298v0.003c-0.047 21.675-17.605 39.234-39.276 39.281h-0.004zM401.613 476.508l-56.484-56.463 157.164-157.164 56.484 56.463-157.164 157.164zM275.149 350.044c-21.675-0.047-39.234-17.605-39.281-39.276v-0.004c0-21.647 17.633-39.301 39.281-39.301 21.683 0.047 39.246 17.617 39.281 39.298v0.003c-0.047 21.675-17.605 39.234-39.276 39.281h-0.004zM275.149 232.182c-21.683-0.047-39.246-17.617-39.281-39.298v-0.003c0-21.627 17.633-39.281 39.281-39.281 21.675 0.047 39.234 17.605 39.281 39.276v0.004c-0.035 21.684-17.598 39.255-39.276 39.301h-0.004zM393.011 232.182c-21.683-0.047-39.246-17.617-39.281-39.298v-0.003c0-21.627 17.654-39.281 39.281-39.281 21.684 0.035 39.255 17.598 39.301 39.276v0.004c-0.035 21.691-17.61 39.266-39.298 39.301h-0.003z" />
<glyph unicode="&#xe924;" glyph-name="bench-press-with-dumbbells" horiz-adv-x="1044" d="M634.88 960c-78.725 0-143.36-67.338-143.36-149.34s64.635-149.32 143.36-149.32 143.36 67.318 143.36 149.32c0 82.002-64.635 149.34-143.36 149.34zM634.88 874.66c34.406 0 61.44-28.16 61.44-64s-27.034-64-61.44-64-61.44 28.18-61.44 64c0 35.84 27.034 64 61.44 64zM901.12 746.66c-67.379 0-122.88-57.836-122.88-128 0-19.661 5.12-37.99 12.8-54.661l-43.52-45.322-94.72 99.983c-30.249 30.679-69.755 43.827-108.81 41.349-39.67-2.519-78.541-22.18-104.96-57.344l-213.75-282.665h-143.36c-44.81 0-81.92-38.666-81.92-85.34v-298.66h81.92v298.66h308.49c50.237 0 98.222 24.166 129.27 65.331l142.090 188.006 28.14-29.327c14.499-15.265 34.946-24.761 57.61-24.761s43.111 9.496 57.578 24.726l0.032 0.034 43.5 45.322c16.015-7.987 33.608-13.312 52.49-13.312 67.379 0 122.88 57.815 122.88 128 0 70.144-55.501 128-122.88 128zM901.12 661.34c23.040 0 40.96-18.678 40.96-42.68s-17.92-42.66-40.96-42.66-40.96 18.657-40.96 42.66c0 24.003 17.92 42.68 40.96 42.68zM547.84 576c17.121 1.004 35.205-6.001 48.64-20.009l6.41-6.656-147.21-197.345c-15.524-20.664-40.141-31.99-65.29-31.99h-60.15l172.81 230.666c11.674 15.503 27.668 24.33 44.79 25.334zM122.88 192v-120.013l34.57-135.987h84.48l-64.020 256h-55.030z" />
<glyph unicode="&#xe925;" glyph-name="binoculars" horiz-adv-x="1044" d="M352.010 816.64c-63.017 0-113.254-46.121-124.006-106.004-60.498-15.237-113.009-54.62-135.987-117.002h-1.024l-67.994-190.996c-14.427-28.582-22.911-62.288-22.999-97.968v-0.029c0-123.372 100.618-224.010 224.010-224.010 111.124 0 203.735 81.633 220.979 188.006 17.388-17.121 41.001-27.996 67.011-27.996s49.623 10.875 66.99 27.996c17.265-106.373 109.875-188.006 221-188.006 123.392 0 224.010 100.659 224.010 224.010 0 31.13-6.369 61.010-18.002 88.003l-72.991 203.981-1.024 1.024v0.983c-23.347 56.75-75.1 96.379-135.987 112.026-10.752 59.843-60.969 105.984-123.986 105.984-59.392 0-107.643-41.124-122.020-96.010h-75.981c-14.377 54.886-62.628 96.010-121.999 96.010zM352.010 752.64c38.113 0 64-25.866 64-64v-32.010h192v32.010c0 38.134 25.866 64 64 64 38.113 0 63.98-25.866 63.98-64v-29l29.020-2.99c47.493-5.018 88.474-38.134 106.988-81.019 0.246-0.614 0.758-1.372 1.004-1.987l24.003-67.994c-29.368 14.234-62.259 22.979-96.993 22.979-93.635 0-173.629-58.122-207.012-139.981-17.45 26.639-47.158 43.991-80.92 43.991-0.028 0-0.055 0-0.083 0h0.004c-0.023 0-0.051 0-0.079 0-33.762 0-63.47-17.352-80.694-43.625l-0.226-0.367c-33.382 81.859-113.377 139.981-207.012 139.981-34.243 0-66.867-8.11-95.99-21.996l24.003 65.004v1.004c18.637 49.5 57.876 78.868 106.988 84.009l29 2.99v29c0 38.134 25.887 64 64.020 64zM224.010 464.63c0.14 0 0.306 0.001 0.472 0.001 88.1 0 159.519-71.419 159.519-159.519 0-0.166 0-0.332-0.001-0.498v0.026c0-0.146 0.001-0.319 0.001-0.492 0-88.1-71.419-159.519-159.519-159.519-0.173 0-0.346 0-0.519 0.001h0.027c-0.14 0-0.306-0.001-0.472-0.001-88.1 0-159.519 71.419-159.519 159.519 0 0.173 0 0.346 0.001 0.519v-0.027c0 22.63 5.632 43.5 14.008 62.996 0.492 1.249 0.492 2.744 0.983 3.994 25.764 55.332 80.898 93 144.83 93 0.059 0 0.118 0 0.178 0h-0.009zM799.99 464.63c0.152 0.001 0.332 0.001 0.513 0.001 88.1 0 159.519-71.419 159.519-159.519 0-0.166 0-0.332-0.001-0.497v0.025c0-0.146 0.001-0.319 0.001-0.492 0-88.1-71.419-159.519-159.519-159.519-0.173 0-0.346 0-0.519 0.001h0.027c-0.146 0-0.319-0.001-0.492-0.001-88.1 0-159.519 71.419-159.519 159.519 0 0.173 0 0.346 0.001 0.519v-0.027c0 0.146-0.001 0.319-0.001 0.492 0 88.1 71.419 159.519 159.519 159.519 0.173 0 0.346 0 0.519-0.001h-0.027zM512 368.64c18.002 0 32.010-14.008 32.010-32.010 0-17.981-14.008-31.99-32.010-31.99-0.123-0.002-0.267-0.003-0.412-0.003-17.453 0-31.601 14.148-31.601 31.601 0 0.145 0.001 0.29 0.003 0.434v-0.022c0 17.981 14.008 31.99 32.010 31.99z" />
<glyph unicode="&#xe926;" glyph-name="birthday-cake" horiz-adv-x="1044" d="M497.664 960l-31.13-45.466s-20.623-28.856-40.673-63.386c-10.015-17.347-19.436-35.43-27.505-53.842-8.069-18.391-15.565-35.287-15.565-57.426 0-62.956 51.896-114.831 114.852-114.831s114.852 51.876 114.852 114.831c0 22.118-7.496 39.035-15.565 57.426-9.639 21.669-18.828 39.337-28.91 56.416l1.406-2.574c-20.050 34.529-40.673 63.386-40.673 63.386l-31.109 45.466zM497.664 625.050h-114.852v-153.129h-229.683c-0.030 0-0.066 0-0.102 0-84.514 0-153.027-68.512-153.027-153.027 0-0.029 0-0.058 0-0.086v0.005c0-38.892 14.336-74.629 38.298-101.683v-281.129h918.712v281.129c23.778 26.854 38.298 62.383 38.298 101.303 0 0.134 0 0.267-0.001 0.4v-0.020c0 0.024 0 0.053 0 0.082 0 84.514-68.512 153.027-153.027 153.027-0.043 0-0.086 0-0.13 0h-229.656v153.129h-114.852zM497.664 821.248c2.519-4.198 2.232-3.891 4.772-8.397 9.114-15.688 18.842-32.44 25.108-46.653 6.287-14.193 8.397-27.361 8.397-26.317 0-21.217-17.060-38.277-38.298-38.277-0.043 0-0.093 0-0.144 0-21.072 0-38.154 17.082-38.154 38.154 0 0.051 0 0.101 0 0.151v-0.008c0-1.065 2.109 12.083 8.397 26.296 6.267 14.213 15.995 30.966 25.108 46.653 2.56 4.506 2.253 4.198 4.792 8.397zM459.366 548.495h76.554v-76.575h-76.554v76.575zM153.129 395.366h689.009c45.609 0 76.575-30.945 76.575-76.554s-30.966-76.575-76.575-76.575c-45.588 0-76.554 30.966-76.554 76.575h-76.554c0-45.609-30.966-76.575-76.554-76.575-45.609 0-76.575 30.966-76.575 76.575h-76.534c0-45.609-30.945-76.575-76.554-76.575s-76.575 30.966-76.575 76.575h-76.554c0-45.609-30.945-76.575-76.554-76.575s-76.575 30.966-76.575 76.575 30.966 76.554 76.575 76.554zM267.96 217.129c28.117-31.623 68.908-51.447 114.33-51.447 0.184 0 0.367 0 0.551 0.001h-0.028c0.149-0.001 0.325-0.001 0.502-0.001 45.422 0 86.213 19.824 114.194 51.292l0.135 0.155c28.117-31.623 68.908-51.447 114.33-51.447 0.184 0 0.367 0 0.551 0.001h-0.028c0.149-0.001 0.325-0.001 0.502-0.001 45.422 0 86.213 19.824 114.194 51.292l0.135 0.155c28.117-31.623 68.908-51.447 114.33-51.447 0.176 0 0.353 0 0.529 0.001h-0.027c13.312 0 26.010 2.847 38.298 5.98v-159.109h-765.624v159.109c12.288-3.133 24.986-5.98 38.298-5.98 0.149-0.001 0.325-0.001 0.502-0.001 45.422 0 86.213 19.824 114.194 51.292l0.135 0.155z" />
<glyph unicode="&#xe927;" glyph-name="bitbucket" horiz-adv-x="1044" d="M506.409 960c-106.721 0-213.811-13.824-298.189-36.372-42.168-11.264-78.172-23.081-107.622-40.714s-59.638-44.012-59.638-85.811c0-10.383 2.54-20.562 5.816-29.102 6.902-35.451 123.453-642.355 135.27-701.092 5.632-27.996 23.45-48.742 43.622-64 20.193-15.278 43.295-26.726 71.291-36.372 55.992-19.251 128-30.536 209.449-30.536 81.469 0 153.088 11.264 209.469 30.536 28.18 9.646 52.347 20.746 72.704 36.372 20.378 15.647 39.465 36.188 43.643 65.454 0.922 6.554 9.83 62.546 23.286 132.362 13.455 69.837 30.904 157.286 47.985 244.367 32.010 163.82 58.921 304.538 62.546 322.908 3.277 8.54 5.837 18.719 5.837 29.082 0 41.82-30.188 68.198-59.638 85.811-29.471 17.654-65.454 29.471-107.643 40.755-84.378 22.508-191.447 36.352-298.189 36.352zM506.409 866.918c98.918 0 201.114-12.37 274.924-32.010 36.905-9.83 65.802-21.811 82.903-31.99 4.71-2.929 5.079-4.014 7.27-5.837-2.191-1.802-2.54-2.908-7.27-5.816-17.101-10.179-45.998-22.18-82.903-31.99-73.83-19.64-176.005-32.010-274.924-32.010s-201.093 12.37-274.903 32.031c-36.905 9.81-65.823 21.791-82.903 31.949-4.731 2.908-5.1 4.014-7.27 5.816 2.171 1.843 2.54 2.929 7.27 5.837 17.080 10.179 45.998 22.18 82.903 31.99 73.81 19.64 176.005 32.010 274.903 32.010zM155.873 686.551c16.548-5.816 33.444-10.916 52.367-16.015 84.357-22.528 191.447-36.352 298.189-36.352 106.701 0 213.811 13.824 298.168 36.352 22.782 5.989 40.242 11.468 57.403 17.58l-5.036-1.564c-12.902-63.283-22.917-109.097-45.097-222.556-10.916-55.624-19.456-105.452-29.082-157.082-0.553-0.737-1.106-0.205-5.837-5.816-10.793-12.967-23.254-24.047-37.168-33.076l-0.638-0.388c-38.543-24.904-108.175-52.367-232.735-52.367-124.539 0-195.441 27.648-234.168 52.367-14.051 8.92-26.050 19.531-36.168 31.756l-0.204 0.254c-6.554 7.803-7.27 8.724-7.27 8.724-31.642 163.267-54.006 281.088-72.724 378.184zM506.409 587.633c-76.534 0-139.633-63.078-139.633-139.633s63.078-139.633 139.633-139.633c76.554 0 139.633 63.078 139.633 139.633s-63.078 139.633-139.633 139.633zM506.409 494.551c26.194 0 46.551-20.378 46.551-46.551 0.002-0.178 0.004-0.388 0.004-0.598 0-25.381-20.576-45.957-45.957-45.957-0.21 0-0.42 0.001-0.63 0.004h0.032c-0.172-0.002-0.374-0.004-0.577-0.004-25.381 0-45.957 20.576-45.957 45.957 0 0.21 0.001 0.42 0.004 0.629v-0.032c0 26.173 20.357 46.551 46.531 46.551zM254.771 173.097c56.013-27.832 135.823-50.913 251.638-50.913 114.36 0 194.355 21.627 250.184 49.459-7.086-35.287-15.811-77.107-17.449-88.74-0.901-1.27-3.461-2.908-7.27-5.816-8.54-6.554-23.634-15.995-45.097-23.265-42.906-14.541-107.459-24.74-180.367-24.74s-136.356 10.015-178.913 24.74c-21.258 7.27-37.622 16.364-46.531 23.265-8.909 6.922-9.277 10.179-8.724 7.27-1.454 6.922-12.902 65.823-17.469 88.74z" />
<glyph unicode="&#xe928;" glyph-name="blind" d="M103.014 898.56l-47.862-47.862 206.049-205.005 431.862-431.882 227.922-228.946 47.862 47.882-211.251 211.251c136.458 69.448 238.182 167.404 244.531 173.773l21.873 21.852-20.808 23.962c-8.602 9.974-211.64 244.511-491.192 244.511-66.355 0-128.123-13.926-184.197-34.345l-224.788 224.809zM512 641.536c72.069 0 138.527-18.493 197.714-44.769 22.528-36.659 35.389-78.438 35.389-121.754 0-60.477-23.286-115.507-61.399-157.143l-94.7 94.7c13.783 17.039 22.897 38.769 22.897 62.464-0.128 55.114-44.784 99.756-99.892 99.86h-0.010c-23.675 0-45.404-9.093-62.444-22.897l-68.669 68.69c41.226 12.349 84.787 20.808 131.113 20.808zM199.803 612.352c-107.827-66.212-174.182-143.073-178.995-148.808l-20.808-23.921 21.852-21.852c9.503-9.482 227-221.901 458.936-240.374h2.068c9.626-0.799 19.517-2.089 29.143-2.089s19.517 1.29 29.143 2.089h2.068c29.373 2.502 56.316 7.286 82.363 14.262l-3.269-0.745-57.242 57.242c-8.315-1.946-17.285-3.256-26.010-4.157l-4.157-1.044c-6.859-0.621-14.837-0.976-22.897-0.976s-16.038 0.354-23.918 1.048l1.021-0.073-3.113 1.024c-117.862 13.271-207.094 112.271-207.094 231.035 0 17.818 2.212 35 6.246 52.019l-85.34 85.34zM221.655 546.816c-5.857-23.429-9.359-47.227-9.359-71.823 0-53.719 14.561-103.936 39.526-147.763-70.615 42.004-128.758 89.498-159.212 116.531 24.863 24.74 70.001 64.922 129.044 103.035zM802.345 546.816c59.044-38.134 103.158-79.36 128-104.079-46.758-41.339-98.471-79.469-153.411-112.815l-4.776-2.692c24.802 42.411 39.474 93.366 39.547 147.742v0.021c0 24.453-3.645 48.394-9.359 71.803zM512 508.314c18.35 0 33.3-14.971 33.3-33.321 0-5.468-1.823-10.015-4.157-14.561l-43.704 43.704c4.547 2.335 9.093 4.157 14.561 4.157z" />
<glyph unicode="&#xe929;" glyph-name="block" horiz-adv-x="1044" d="M0 837.12v-787.702h1024v787.702h-1024zM78.766 758.354h236.319v-157.532h-236.319v157.532zM393.851 758.354h236.298v-157.532h-236.298v157.532zM708.915 758.354h236.319v-157.532h-236.319v157.532zM78.766 522.035h78.766v-157.532h-78.766v157.532zM236.298 522.035h236.319v-157.532h-236.319v157.532zM551.383 522.035h236.319v-157.532h-236.319v157.532zM866.468 522.035h78.766v-157.532h-78.766v157.532zM78.766 285.737h236.319v-157.532h-236.319v157.532zM393.851 285.737h236.298v-157.532h-236.298v157.532zM708.915 285.737h236.319v-157.532h-236.319v157.532z" />
<glyph unicode="&#xe92a;" glyph-name="body-scan" d="M510.3 960c-93.839 0-170.68-76.841-170.68-170.66 0-31.334 9.175-60.006 24.003-85.34h-322.662v-597.34h938.66v597.34h-322.662c14.828 25.334 24.003 54.006 24.003 85.34 0 93.819-76.841 170.66-170.66 170.66zM510.3 874.66c0.202 0.002 0.44 0.003 0.679 0.003 46.748 0 84.644-37.896 84.644-84.644 0-0.239-0.001-0.477-0.003-0.715v0.037c0.002-0.208 0.003-0.453 0.003-0.699 0-46.748-37.896-84.644-84.644-84.644-0.239 0-0.477 0.001-0.715 0.003h0.036c-0.208-0.002-0.453-0.003-0.699-0.003-46.748 0-84.644 37.896-84.644 84.644 0 0.246 0.001 0.491 0.003 0.737v-0.038c-0.002 0.202-0.003 0.44-0.003 0.679 0 46.748 37.896 84.644 84.644 84.644 0.246 0 0.491-0.001 0.737-0.003h-0.038zM126.3 618.66h768v-426.66h-256v15.995l85.32 42.68v239.985c0 30.331-7.168 59.187-18.657 85.34h-100.004c20.5-22.671 33.341-52.49 33.341-85.34v-186.655l-85.34-42.68v-69.325h-85.34v69.325l-85.32 42.68v186.655c0 32.85 12.82 62.669 33.321 85.34h-100.004c-11.489-26.173-18.657-55.009-18.657-85.34v-239.985l85.34-42.68v-15.995h-256v426.66zM382.3 64v-128h256v128h-85.34v-42.66h-85.34v42.66h-85.32z" />
<glyph unicode="&#xe92b;" glyph-name="bookmark" horiz-adv-x="1044" d="M209.92 960c-70.164 0-128-57.836-128-128v-768c0-70.164 57.836-128 128-128h725.34v1024h-725.34zM209.92 874.66h128v-486.994l170.66 170.66 170.68-170.66v487.014h170.66v-682.68h-640c-14.991 0-29.164-3.174-42.66-7.987v647.987c0 24.166 18.493 42.66 42.66 42.66zM423.26 874.66h170.66v-280.986l-85.34 85.32-85.32-85.32v280.986zM209.92 106.66h640v-85.32h-640c-24.166 0-42.66 18.493-42.66 42.66s18.493 42.66 42.66 42.66z" />
<glyph unicode="&#xe92c;" glyph-name="bookmark-ribbon" horiz-adv-x="1044" d="M102.4 960v-1024l70.963 52.879 329.728 247.644 329.728-247.644 70.963-52.879v1024h-801.382zM191.447 870.953h623.309v-756.859l-285.225 214.262-26.419 19.456-26.46-19.456-285.204-214.262v756.859z" />
<glyph unicode="&#xe92d;" glyph-name="bottle-of-water" d="M442.675 960c-43.069 0-78.766-35.697-78.766-78.766v-91.075c-37.683-18.473-65.065-50.934-83.681-86.159-21.429-39.961-34.146-87.375-34.467-137.73l-0.001-0.1c0-31.252 21.094-55.869 39.383-66.478v-299.069c-18.289-10.322-39.383-35.86-39.383-67.707v-78.766c0-64.758 53.391-118.149 118.17-118.149h315.064c64.758 0 118.17 53.391 118.17 118.17v78.746c0 31.846-21.094 57.385-39.404 67.707v299.069c18.309 10.609 39.383 35.226 39.383 66.458 0 44.933-11.223 94.003-34.468 137.851-18.616 35.226-45.998 67.686-83.681 86.159v91.075c0 43.069-35.717 78.766-78.766 78.766h-157.553zM442.675 881.234h157.553v-78.766h-157.553v78.766zM411.914 723.702h219.075c24.924-6.943 46.92-26.624 62.771-56.627 16.159-30.618 24.617-69.53 24.617-100.925h-315.085v-78.766h275.702v-275.681h-275.702v-78.787h312.627s1.372-0.922 2.458-1.229v-77.537c0-0.037 0-0.080 0-0.123 0-21.683-17.577-39.26-39.26-39.26-0.043 0-0.087 0-0.13 0h-315.078c-0.037 0-0.080 0-0.123 0-21.683 0-39.26 17.577-39.26 39.26 0 0.043 0 0.087 0 0.13v-0.007 78.766c0.922 0.307 2.458 0 2.458 0l36.925 1.229v430.797l-38.154 1.229s-0.922-0.143-1.229 0c0 30.925 8.458 70.164 24.617 100.925 15.852 30.147 38.011 49.848 62.771 56.627z" />
<glyph unicode="&#xe92e;" glyph-name="braille" d="M307.2-64c-56.607 0-102.4 45.793-102.4 102.4s45.793 102.4 102.4 102.4 102.4-45.793 102.4-102.4-45.793-102.4-102.4-102.4zM716.8-64c-56.607 0-102.4 45.793-102.4 102.4s45.793 102.4 102.4 102.4 102.4-45.793 102.4-102.4-45.793-102.4-102.4-102.4zM307.2 345.6c-56.607 0-102.4 45.793-102.4 102.4s45.793 102.4 102.4 102.4 102.4-45.793 102.4-102.4-45.793-102.4-102.4-102.4zM716.8 345.6c-56.607 0-102.4 45.793-102.4 102.4s45.793 102.4 102.4 102.4 102.4-45.793 102.4-102.4-45.793-102.4-102.4-102.4zM307.2 755.2c-56.607 0-102.4 45.793-102.4 102.4s45.793 102.4 102.4 102.4 102.4-45.793 102.4-102.4-45.793-102.4-102.4-102.4zM716.8 755.2c-56.607 0-102.4 45.793-102.4 102.4s45.793 102.4 102.4 102.4 102.4-45.793 102.4-102.4-45.793-102.4-102.4-102.4z" />
<glyph unicode="&#xe92f;" glyph-name="brain" d="M384 960c-81.51 0-147.497-59.167-164.004-135.987-99.492-17.838-177.336-100.844-177.336-205.353 0-10.486 1.167-19.825 2.662-29.327-27.464-40.489-45.322-88.166-45.322-141.332 0-76.657 38.175-141.169 91.996-188.006-3.83-15.155-6.656-30.31-6.656-46.653 0-105.513 86.487-192 192-192h2.662c24.822-48.169 67.83-85.34 125.338-85.34 41.849 0.102 79.628 17.448 106.622 45.304l0.037 0.039c27.032-27.895 64.81-45.24 106.641-45.343h0.019c57.508 0 100.516 37.171 125.338 85.34h2.662c100.168 0 182.333 77.988 190.669 175.985h1.331c0 2.662-1.167 5.325-1.331 8.008 0.164 2.662 1.331 5.325 1.331 7.987 0 15.852-5.652 29.348-9.318 44.032 55.316 46.961 94.659 112.62 94.659 190.648 0 53.166-17.818 100.844-45.343 141.332 1.516 9.503 2.662 18.842 2.662 29.327 0 104.509-77.824 187.515-177.316 205.332-16.507 76.841-82.514 136.008-164.004 136.008-51.159 0-96.666-23.839-128-60.006-31.334 36.168-76.841 60.006-128 60.006zM384 874.66c0.208 0.002 0.453 0.003 0.699 0.003 46.748 0 84.644-37.896 84.644-84.644 0-0.239-0.001-0.477-0.003-0.715v0.036-85.34c0.001-0.183 0.001-0.399 0.001-0.616 0-70.353-57.032-127.386-127.386-127.386-0.217 0-0.433 0.001-0.649 0.002h0.033v-85.34c48.333 0 92.16 16.671 128 44.012v-449.331c0.002-0.183 0.003-0.4 0.003-0.617 0-35.007-28.379-63.386-63.386-63.386-0.217 0-0.434 0.001-0.65 0.003h0.033c-31.846 0-57.344 21.996-62.669 51.999l-7.987 41.329-41.37-6.676c-4.974-0.826-10.707-1.298-16.549-1.298-58.613 0-106.127 47.515-106.127 106.127 0 0.176 0 0.351 0.001 0.526v-0.027c0.020 13.189 2.191 25.518 6.697 37.356 0.328 0.983 1.004 1.659 1.331 2.662 13.401 32.759 41.93 56.881 76.659 63.887l0.673 0.113-17.326 83.988c-44.947-9.098-83.215-33.010-110.403-66.32l-0.271-0.342c-26.829 30.003-42.66 69.673-42.66 113.336 0 39.997 13.66 75.674 37.335 105.329l13.312 15.995-3.994 21.34c-2.335 9.994-3.994 18.842-3.994 27.996-0.001 0.183-0.001 0.399-0.001 0.616 0 70.353 57.032 127.386 127.386 127.386 0.217 0 0.433-0.001 0.649-0.002h42.627v42.68c-0.002 0.202-0.003 0.44-0.003 0.679 0 46.748 37.896 84.644 84.644 84.644 0.246 0 0.491-0.001 0.737-0.003h-0.038zM640 874.66c0.208 0.002 0.453 0.003 0.699 0.003 46.748 0 84.644-37.896 84.644-84.644 0-0.239-0.001-0.477-0.003-0.715v0.036-42.68h42.66c0.183 0.001 0.399 0.001 0.616 0.001 70.353 0 127.386-57.032 127.386-127.386 0-0.217-0.001-0.433-0.002-0.649v0.033c0-9.155-1.659-18.002-3.994-27.996l-4.014-21.34 13.332-15.974c23.675-29.696 37.335-65.331 37.335-105.349 0-51.159-21.832-96.829-57.344-128-29.143 25.825-66.314 42.66-107.991 42.66-40.325 0-76.657-14.336-105.329-38.666l54.682-65.331c13.412 11.607 31.026 18.679 50.292 18.679 0.125 0 0.249 0 0.374-0.001h-0.019c41.165 0 74.015-30.843 78.684-70.656-3.502-56.177-48.333-100.024-105.349-100.024-3.83 0-8.499 0.164-15.974 1.331l-41.37 6.676-7.987-41.329c-5.325-30.003-30.822-52.019-62.669-52.019-0.184-0.002-0.4-0.003-0.618-0.003-35.007 0-63.386 28.379-63.386 63.386 0 0.224 0.001 0.448 0.003 0.672v-0.034 449.331c35.84-27.341 79.667-44.012 128-44.012v85.34c-0.183-0.001-0.399-0.001-0.616-0.001-70.353 0-127.386 57.032-127.386 127.386 0 0.217 0.001 0.433 0.002 0.649v-0.033 85.34c-0.002 0.202-0.003 0.44-0.003 0.679 0 46.748 37.896 84.644 84.644 84.644 0.246 0 0.491-0.001 0.737-0.003h-0.038z" />
<glyph unicode="&#xe930;" glyph-name="bulleted-list" horiz-adv-x="1044" d="M85.34-40.1c-0.018 0-0.040 0-0.061 0-47.098 0-85.279 38.181-85.279 85.279 0 0.014 0 0.029 0 0.043v-0.002c0 0.018 0 0.040 0 0.061 0 47.098 38.181 85.279 85.279 85.279 0.022 0 0.043 0 0.065 0h-0.003c0.012 0 0.027 0 0.041 0 47.098 0 85.279-38.181 85.279-85.279 0-0.022 0-0.043 0-0.065v0.003c0-0.012 0-0.027 0-0.041 0-47.098-38.181-85.279-85.279-85.279-0.014 0-0.029 0-0.043 0h0.002zM298.66 2.56v85.34h725.34v-85.34h-725.34zM85.34 343.9c-0.018 0-0.040 0-0.061 0-47.098 0-85.279 38.181-85.279 85.279 0 0.014 0 0.029 0 0.043v-0.002c0 0.018 0 0.040 0 0.061 0 47.098 38.181 85.279 85.279 85.279 0.022 0 0.043 0 0.065 0h-0.003c0.012 0 0.027 0 0.041 0 47.098 0 85.279-38.181 85.279-85.279 0-0.022 0-0.043 0-0.065v0.003c0-0.012 0-0.027 0-0.041 0-47.098-38.181-85.279-85.279-85.279-0.014 0-0.029 0-0.043 0h0.002zM298.66 386.56v85.34h725.34v-85.34h-725.34zM85.34 727.9c-0.018 0-0.040 0-0.061 0-47.098 0-85.279 38.181-85.279 85.279 0 0.014 0 0.029 0 0.043v-0.002c0 0.018 0 0.040 0 0.061 0 47.098 38.181 85.279 85.279 85.279 0.022 0 0.043 0 0.065 0h-0.003c0.012 0 0.027 0 0.041 0 47.098 0 85.279-38.181 85.279-85.279 0-0.022 0-0.043 0-0.065v0.003c0-0.012 0-0.027 0-0.041 0-47.098-38.181-85.279-85.279-85.279-0.014 0-0.029 0-0.043 0h0.002zM298.66 770.56v85.34h725.34v-85.34h-725.34z" />
<glyph unicode="&#xe931;" glyph-name="business-contact" d="M0 837.12v-787.702h1024v787.702h-1024zM78.766 758.354h866.468v-630.17h-134.144c-3.072 5.407-1.7 12.78-6.164 17.244-14.93 14.93-36.004 22.159-56.627 22.159-20.603 0-41.677-7.229-56.607-22.159-4.465-4.465-3.072-11.837-6.144-17.224h-347.095c-3.072 5.386-1.679 12.759-6.144 17.224-14.93 14.93-36.004 22.159-56.607 22.159-20.623 0-41.697-7.229-56.627-22.159-4.465-4.465-3.072-11.837-6.144-17.224h-134.144v630.149zM354.468 679.588c-86.63 0-157.553-70.922-157.553-157.553 0-43.827 18.78-83.374 48.005-111.985-52.449-35.553-87.388-96.154-87.388-163.697h78.766c0 65.263 52.906 118.17 118.17 118.17v0c65.254-0.012 118.149-52.914 118.149-118.17v0h78.766c0 67.543-34.918 128.143-87.388 163.697 29.245 28.611 48.005 68.137 48.005 111.985 0 86.63-70.922 157.553-157.532 157.553zM354.468 600.822c0.183 0.002 0.4 0.002 0.617 0.002 43.162 0 78.152-34.99 78.152-78.152 0-0.224-0.001-0.448-0.003-0.672v0.034c0.002-0.183 0.002-0.4 0.002-0.617 0-43.162-34.99-78.152-78.152-78.152-0.217 0-0.434 0.001-0.65 0.003h0.033c-0.183-0.002-0.4-0.002-0.617-0.002-43.162 0-78.152 34.99-78.152 78.152 0 0.217 0.001 0.434 0.003 0.65v-0.033c-0.002 0.189-0.003 0.413-0.003 0.637 0 43.162 34.99 78.152 78.152 78.152 0.217 0 0.434-0.001 0.65-0.003h-0.033zM630.149 561.418v-78.766h236.319v78.766h-236.319zM630.149 403.886v-78.766h236.319v78.766h-236.319z" />
<glyph unicode="&#xe932;" glyph-name="buy" d="M41.37 857.6c-22.774 0-41.37-18.596-41.37-41.37 0-22.794 18.596-41.37 41.37-41.37h91.812l108.605-434.442c9.216-36.844 42.189-62.054 80.159-62.054h515.891c37.315 0 68.997 24.74 78.848 60.764l107.315 394.363h-86.63l-99.533-372.347h-515.891l-108.605 434.401c-9.216 36.844-42.189 62.054-80.159 62.054h-91.812zM786.104 278.364c-68.035 0-124.109-56.074-124.109-124.109 0-68.055 56.074-124.129 124.109-124.129s124.109 56.074 124.109 124.109c0 68.055-56.074 124.129-124.109 124.129zM413.737 278.364c-68.035 0-124.109-56.074-124.109-124.109 0-68.055 56.074-124.129 124.109-124.129s124.109 56.074 124.109 124.109c0 68.055-56.074 124.129-124.109 124.129zM537.846 857.6v-206.868h-124.109l165.478-165.478 165.519 165.478h-124.129v206.868h-82.739zM413.737 195.625c23.265 0 41.37-18.104 41.37-41.37 0-23.286-18.104-41.37-41.37-41.37-0.159-0.002-0.348-0.004-0.536-0.004-22.554 0-40.837 18.283-40.837 40.837 0 0.188 0.001 0.377 0.004 0.565v-0.029c0 23.265 18.104 41.37 41.37 41.37zM786.104 195.625c23.265 0 41.37-18.104 41.37-41.37 0-23.286-18.104-41.37-41.37-41.37-0.159-0.002-0.348-0.004-0.536-0.004-22.554 0-40.837 18.283-40.837 40.837 0 0.188 0.001 0.377 0.004 0.565v-0.029c0 23.265 18.084 41.37 41.37 41.37z" />
<glyph unicode="&#xe933;" glyph-name="caduceus" horiz-adv-x="1044" d="M512 919.040c-32.632 0-59.085-26.453-59.085-59.085v0c0-17.531 7.537-33.526 19.702-44.298v-93.532c31.068 0 39.383-39.383 39.383-39.383s9.38 39.383 39.383 39.383v93.532c12.116 10.877 19.702 26.589 19.702 44.073 0 0.079 0 0.158 0 0.237v-0.012c0 32.632-26.453 59.085-59.085 59.085v0zM329.851 879.657c-71.537 0-116.777-39.24-153.846-67.686-37.069-28.467-67.707-50.463-136.602-50.463h-39.404v-54.17l6.144-9.83c46.776-75.551 146.022-132.915 308.941-132.915v78.746c-100.925 0-155.238 25.231-194.478 55.398 42.476 13.373 78.172 32.297 103.383 51.692 39.711 30.618 60.928 50.463 105.861 50.463 6.758 0 15.688-3.072 19.681-6.144 4.014-3.092 4.915-3.543 4.915-11.1 0-3.379-1.843-7.229-8.602-22.139-6.758-14.93-13.394-46.162 0-72.622l70.144 34.468c-2.458 4.772-2.458-3.072 1.229 4.915s16.015 27.689 16.015 55.378c-0.154 29.805-13.977 56.35-35.514 73.708l-0.183 0.143c-20.316 15.852-44.298 22.159-67.686 22.159zM694.149 879.657c-23.388 0-47.37-6.308-67.686-22.159-21.72-17.501-35.542-44.046-35.697-73.825v-0.026c0-27.689 12.308-47.37 15.995-55.378 3.686-7.987 3.686-0.143 1.229-4.915l70.164-34.468c13.394 26.46 6.758 57.692 0 72.622-6.758 14.909-8.602 18.76-8.602 22.139 0 7.557 2.13 8.008 6.144 11.080 3.994 3.072 11.674 6.144 18.452 6.144 44.933 0 66.15-19.825 105.861-50.442 25.211-19.395 60.908-38.298 103.383-51.692-39.24-30.167-93.553-55.398-194.478-55.398v-78.766c162.939 0 262.144 57.385 308.941 132.915l6.144 9.851v54.17h-39.383c-68.915 0-99.533 21.996-136.602 50.463-37.089 28.467-82.33 67.686-153.866 67.686zM433.234 683.971c-45.384 0-78.766-38.298-78.766-80.015 0-53.985 20.767-96.297 50.463-123.085 3.072-2.744 6.615-4.915 9.83-7.373-1.987-1.229-4.137-2.294-6.144-3.686-29.839-19.538-54.149-57.549-54.149-103.383 0-44.155 17.531-81.244 41.841-105.841 10.882-10.996 22.981-20.751 36.088-29.057l0.837-0.495c-22.159-20.603-40.612-51.835-40.612-88.617 0-34.14 16.445-63.529 35.676-84.91 1.229-1.393 2.458-2.458 3.686-3.686-1.229-0.328-6.144-1.229-6.144-1.229l18.473-76.329s31.232 8.151 67.686 24.617c36.454-16.466 67.686-24.617 67.686-24.617l18.473 76.308s-4.915 0.922-6.144 1.229c1.229 1.229 2.458 2.314 3.686 3.686 19.231 21.402 35.676 50.79 35.676 84.931 0 36.782-18.452 67.994-40.612 88.617 13.945 8.802 26.043 18.557 36.908 29.535l0.017 0.017c24.31 24.596 41.841 61.686 41.841 105.841 0 45.834-24.31 83.845-54.149 103.383-2.007 1.393-4.157 2.458-6.144 3.686 3.215 2.458 6.758 4.628 9.83 7.373 29.86 26.788 50.463 69.1 50.463 123.085 0 41.697-33.382 80.015-78.766 80.015-24.31 0-44.769-12.616-57.836-27.075-13.087-14.479-20.931-31.846-20.931-52.941 0 21.094-7.844 38.461-20.931 52.941-13.066 14.459-33.526 27.075-57.836 27.075zM440.607 583.045h142.787c-3.85-16.937-6.144-35.389-16.015-44.319-12.288-11.059-32.461-19.067-55.378-27.075-22.938 7.987-43.069 15.995-55.378 27.075-9.851 8.929-12.165 27.382-16.015 44.319zM512 426.742c24.781-8.172 46.776-15.401 59.085-23.388 14.459-9.544 19.681-13.394 19.681-36.925 0-25.395-6.922-37.54-19.681-50.463-12.78-12.923-33.853-23.695-57.856-35.697-0.451-0.307-0.758-0.922-1.229-1.229-0.471 0.307-0.778 0.922-1.229 1.229-24.003 12.001-45.076 22.774-57.856 35.697-12.759 12.902-19.681 25.068-19.681 50.463 0 23.552 5.222 27.382 19.681 36.925 12.308 7.987 34.324 15.217 59.085 23.388zM512 189.194c9.073-5.222 17.531-9.994 23.388-14.766 12.616-10.629 17.224-15.544 17.224-32.010 0-11.674-4.608-20.767-14.766-31.99-6.615-7.373-15.544-15.237-25.846-22.159-9.761 6.549-18.237 13.854-25.751 22.055l-0.095 0.105c-10.158 11.223-14.766 20.296-14.766 31.99 0 16.466 4.608 21.381 17.224 32.010 5.857 4.772 14.316 9.544 23.388 14.766z" />
<glyph unicode="&#xe934;" glyph-name="caduceus_gavel" d="M245.76 960v-315.085h78.766v39.383h157.532v-64.451c14.479-9.073 28.017-19.866 38.932-32.625 11.351 13.411 24.491 24.837 39.156 34.058l0.698 0.409v62.607h157.532v-39.383h78.766v315.085h-78.766v-39.383h-393.83v39.383h-78.787zM324.526 841.83h393.83v-78.746h-393.83v78.746zM639.611 605.532c-34.468 0-63.386-16.609-83.845-38.154-20.48-21.524-34.304-48.763-34.304-79.995v-1.085c0 31.232-13.865 58.47-34.324 80.015-20.46 21.524-49.377 38.154-83.845 38.154-34.611 0-64.307-16.63-84.603-38.461-20.316-22.016-33.546-49.848-33.546-80.773-0.002-0.275-0.003-0.601-0.003-0.927 0-52.49 25.718-98.972 65.241-127.534l0.461-0.317c16.916-12.288 35.369-21.381 54.292-28.918-6.451-4.915-12.759-10.301-18.289-16.773-14.126-16.898-22.762-38.809-22.937-62.733v-0.038c0-40.612 20.48-74.916 46.162-94.761 6.144-4.915 12.759-9.073 19.231-12.923-14.766-16.466-26.010-38.154-26.010-63.078 0-30.147 16.794-53.084 34.939-69.693l16.589-71.537s32.154 7.7 68.936 22.323c17.654-7.347 39.977-14.916 62.842-21.173l4.23-0.987 18.166 74.138c16.466 16.63 30.618 38.912 30.618 66.765 0 25.231-11.551 46.94-26.624 63.242l0.164 0.143c6.615 3.686 13.23 8.008 19.681 12.923 28.135 22.236 46.057 56.323 46.162 94.6v0.018c-0.086 24.047-8.671 46.072-22.907 63.244l0.133-0.165c-5.427 6.173-11.32 11.683-17.709 16.578l-0.293 0.216c18.78 7.68 37.069 17.060 54.149 29.368 39.823 29.139 65.395 75.707 65.395 128.248 0 0.287-0.001 0.574-0.002 0.861v-0.044c0 30.925-13.23 58.778-33.546 80.63-20.296 21.996-49.992 38.605-84.603 38.605zM639.611 526.766c9.073 0 18.76-4.608 26.911-13.373 8.172-8.786 12.472-20.931 12.472-27.095 0-34.14-10.936-49.213-33.075-65.372-21.996-16.159-57.385-28.611-95.539-39.24-9.38-2.458-18.924-5.079-28.303-7.537-10.015 2.621-20.009 5.243-29.696 7.844-38.298 10.322-73.544 22.467-95.703 38.298-21.996 16.015-32.768 30.781-32.768 64.922 0 6.164 4.301 18.33 12.472 27.095 8.151 8.765 17.838 13.394 26.911 13.394 7.987 0 18.309-4.628 26.624-13.537 8.458-8.929 12.759-21.094 12.759-25.866v-38.298h157.553v39.383c0 4.772 4.301 16.916 12.759 25.846 8.315 8.929 18.637 13.537 26.624 13.537zM522.22 292.311c20.316-5.53 38.461-11.244 51.548-17.244 11.53-5.366 18.924-10.916 22.139-14.746 3.4-4.014 4.301-5.55 4.301-12.329 0-18.76-3.994-23.532-15.36-31.99-11.244-8.602-31.846-16.916-55.849-24.781-2.785-0.922-5.693-1.843-8.622-2.765-2.846 0.858-4.94 1.59-7.003 2.387l0.695-0.236c-23.839 7.864-44.626 16.179-55.992 24.924-11.244 8.786-15.401 13.701-15.401 32.461 0 6.308 0.778 7.7 4.157 11.694 3.379 3.85 10.629 9.4 22.323 14.766 13.373 6.144 32.297 12.001 53.064 17.859zM520.376 105.226c11.837-4.301 22.159-8.294 28.774-12.288 11.674-7.086 11.674-6.164 11.674-15.852 0-1.7-1.229-6.308-10.916-14.95-6.308-5.53-15.995-11.53-26.46-17.203-12.001 6.308-23.224 12.902-30.454 19.067-10.158 8.765-10.936 13.394-10.936 13.23 0 10.158 0.164 9.38 11.858 16.466 6.144 3.686 15.544 7.537 26.46 11.53z" />
<glyph unicode="&#xe935;" glyph-name="cafe" horiz-adv-x="1044" d="M327.68 898.56v-163.84h81.92v163.84h-81.92zM491.52 857.6v-122.88h81.92v122.88h-81.92zM40.96 693.76v-368.64c0-112.64 92.16-204.8 204.8-204.8h409.6c112.64 0 204.8 92.16 204.8 204.8h40.96c67.379 0 122.88 55.501 122.88 122.88v245.76h-983.040zM122.88 611.84h655.36v-286.72c0-68.321-54.559-122.88-122.88-122.88h-409.6c-68.321 0-122.88 54.559-122.88 122.88v286.72zM860.16 611.84h81.92v-163.84c0-23.204-17.756-40.96-40.96-40.96h-40.96v204.8zM0 79.36v-81.92h901.12v81.92h-901.12z" />
<glyph unicode="&#xe936;" glyph-name="calculator" horiz-adv-x="1044" d="M102.4 960v-1024h787.702v1024h-787.702zM181.166 881.234h630.17v-866.468h-630.19v866.468zM259.932 802.468v-236.319h472.637v236.319h-472.637zM338.698 723.702h315.085v-78.787h-315.085v78.787zM299.315 487.383v-78.766h78.787v78.766h-78.787zM456.868 487.383v-78.766h78.766v78.766h-78.766zM614.4 487.383v-78.766h78.766v78.766h-78.766zM299.315 329.851v-78.766h78.787v78.746h-78.787zM456.868 329.851v-78.766h78.766v78.746h-78.766zM614.4 329.851v-78.766h78.766v78.746h-78.766zM299.315 172.298v-78.766h78.787v78.766h-78.787zM456.868 172.298v-78.766h78.766v78.766h-78.766zM614.4 172.298v-78.766h78.766v78.766h-78.766z" />
<glyph unicode="&#xe937;" glyph-name="calendar" horiz-adv-x="1044" d="M198.574 960v-44.524h-178.094v-979.476h979.476v979.476h-178.094v44.524h-89.027v-44.524h-445.235v44.524h-89.027zM109.527 826.429h89.047v-44.524h89.027v44.524h445.235v-44.524h89.027v44.524h89.047v-89.047h-801.382v89.047zM109.527 648.356h801.382v-623.309h-801.382v623.309zM376.648 559.309v-89.047h89.047v89.047h-89.047zM554.742 559.309v-89.047h89.047v89.047h-89.047zM732.836 559.309v-89.047h89.027v89.047h-89.027zM198.574 381.215v-89.047h89.027v89.068h-89.027zM376.648 381.215v-89.047h89.047v89.068h-89.047zM554.742 381.215v-89.047h89.047v89.068h-89.047zM732.836 381.215v-89.047h89.027v89.068h-89.027zM198.574 203.121v-89.027h89.027v89.027h-89.027zM376.648 203.121v-89.027h89.047v89.027h-89.047zM554.742 203.121v-89.027h89.047v89.027h-89.047z" />
<glyph unicode="&#xe938;" glyph-name="calendar-minus" d="M198.574 960v-44.524h-178.094v-979.476h979.476v979.476h-178.094v44.524h-89.027v-44.524h-445.235v44.524h-89.027zM109.527 826.429h89.047v-44.524h89.027v44.524h445.235v-44.524h89.027v44.524h89.047v-89.047h-801.382v89.047zM109.527 648.356h801.382v-623.309h-801.382v623.309zM287.601 381.215v-89.047h445.235v89.068h-445.235z" />
<glyph unicode="&#xe939;" glyph-name="calendar-plus" horiz-adv-x="1044" d="M198.574 960v-44.524h-178.094v-979.476h979.476v979.476h-178.094v44.524h-89.027v-44.524h-445.235v44.524h-89.027zM109.527 826.429h89.047v-44.524h89.027v44.524h445.235v-44.524h89.027v44.524h89.047v-89.047h-801.382v89.047zM109.527 648.356h801.382v-623.309h-801.382v623.309zM465.695 559.309v-178.094h-178.094v-89.047h178.094v-178.074h89.047v178.053h178.094v89.088h-178.094v178.094h-89.047z" />
<glyph unicode="&#xe93a;" glyph-name="call-transfer" horiz-adv-x="1044" d="M170.66 65.7c-56.115 0-109.322 35.615-128 91.75-21.32 63.98-42.66 153.723-42.66 283.709s21.34 219.73 42.66 283.73c18.678 56.115 71.885 91.75 128 91.75h102.4c17.879 0 36.147-6.267 49.070-19.21 12.943-12.923 19.21-31.191 19.21-49.050v-136.54c0-17.859-6.267-36.127-19.21-49.070-12.923-12.923-31.191-19.19-49.070-19.19h-68.26c-6.943-18.145-17.060-49.48-17.060-102.4 0-52.941 10.117-84.275 17.060-102.4h68.26c17.879 0 36.147-6.267 49.070-19.21 12.943-12.923 19.21-31.191 19.21-49.070v-136.52c0-17.879-6.267-36.147-19.21-49.070-12.923-12.943-31.191-19.21-49.070-19.21h-102.4zM853.34 65.7c-58.497 0.090-108.229 37.519-126.646 89.723l-0.289 0.941c-0.143 0.532-0.942 0.532-1.065 1.085-21.606 61.583-42.68 154.255-42.68 283.73 0 129.987 21.34 219.73 42.68 283.73 18.657 56.095 71.864 91.73 128 91.73h102.4c17.859 0 36.127-6.267 49.050-19.21 12.943-12.923 19.21-31.191 19.21-49.050v-136.54c0-17.859-6.267-36.127-19.21-49.070-12.923-12.923-31.191-19.19-49.050-19.19h-68.28c-6.922-18.145-17.060-49.48-17.060-102.4 0-52.941 10.138-84.275 17.060-102.4h68.28c17.859 0 36.127-6.267 49.050-19.21 12.943-12.923 19.21-31.191 19.21-49.070v-136.52c0-17.879-6.267-36.147-19.21-49.070-12.923-12.943-31.191-19.21-49.050-19.21h-102.4zM170.66 133.98h102.4v136.52h-113.050l-9.626 19.21s-30.925 61.993-30.925 151.47c0 89.457 30.925 151.45 30.925 151.45l9.626 19.21h113.050v136.54h-102.4c-25.723 0-54.272-18.944-62.935-44.81-19.599-58.921-39.465-139.735-39.465-262.39 0-122.675 19.866-203.469 39.465-262.41 8.684-25.866 37.212-44.79 62.935-44.79zM853.34 133.98h102.4v136.52h-113.070l-9.605 19.21s-30.925 61.993-30.925 151.47c0 89.457 30.925 151.45 30.925 151.45l9.605 19.21h113.050v136.54h-102.4c-25.723 0-54.272-18.944-62.915-44.81-19.599-58.921-39.465-139.735-39.465-262.39 0-122.675 20.275-206.95 39.465-261.325v-1.085c9.196-27.464 32.522-44.79 62.935-44.79zM494.94 280.105l-48.005 49.070 77.865 77.865h-217.6v68.26h217.6l-77.865 77.865 48.005 49.070 161.055-161.055-161.055-161.075z" />
<glyph unicode="&#xe93b;" glyph-name="cancel" horiz-adv-x="1044" d="M512-64c-282.317 0-512 229.683-512 512s229.683 512 512 512 512-229.683 512-512-229.683-512-512-512zM512 14.766c239.698 0 433.234 193.536 433.234 433.234s-193.536 433.234-433.234 433.234-433.234-193.536-433.234-433.234 193.536-433.234 433.234-433.234zM363.069 242.463l-56.607 56.607 148.931 148.931-148.931 148.931 56.607 56.607 148.931-148.931 148.931 148.931 56.607-56.607-148.931-148.931 148.931-148.931-56.607-56.607-148.931 148.931-148.931-148.931z" />
<glyph unicode="&#xe93c;" glyph-name="cancel-2" horiz-adv-x="1044" d="M512 960c-282.317 0-512-229.683-512-512s229.683-512 512-512 512 229.683 512 512-229.683 512-512 512zM512 881.234c239.698 0 433.234-193.536 433.234-433.234 0-107.377-38.912-205.087-103.383-280.617l-604.303 616.612c74.609 61.112 170.148 97.239 274.452 97.239zM182.149 728.617l604.303-616.612c-74.609-61.112-170.148-97.239-274.452-97.239-239.698 0-433.234 193.536-433.234 433.234 0 107.377 38.912 205.087 103.383 280.617z" />
<glyph unicode="&#xe93d;" glyph-name="cancel-file" horiz-adv-x="1044" d="M61.44 960v-918.077h416.010c51.855-64.553 130.601-105.923 219.566-105.923 155.587 0 282.501 126.894 282.501 282.481 0 131.031-90.501 240.845-211.866 272.548v236.134l-9.933 11.059-211.866 211.825-11.039 9.953h-473.375zM132.055 889.385h353.116v-211.866h211.845v-176.538c-155.566 0-282.481-126.915-282.481-282.501 0-37.663 7.455-73.114 20.972-105.923h-303.452v776.786zM555.786 838.615l90.481-90.481h-90.481v90.481zM697.016 430.346c45.793 0 87.859-15.319 122.491-39.731l-294.605-294.625c-24.412 34.632-39.731 76.698-39.731 122.491 0 0.14-0.001 0.306-0.001 0.472 0 116.75 94.645 211.395 211.395 211.395 0.166 0 0.332 0 0.497-0.001h-0.026zM869.171 340.972c24.412-34.611 39.731-76.698 39.731-122.47 0-0.146 0.001-0.319 0.001-0.492 0-116.75-94.645-211.395-211.395-211.395-0.173 0-0.346 0-0.519 0.001h0.027c-45.793 0-87.859 15.319-122.47 39.731l294.625 294.625z" />
<glyph unicode="&#xe93e;" glyph-name="cancer-ribbon" d="M508.846 960c-46.203 0-151.101 0-188.805-62.935v-3.932c-4.26-8.356-70.799-155.197-91.771-209.777-25.231-67.195 4.26-147.661 41.964-197.98 29.327-46.223 393.83-498.565 406.446-515.277l24.904-34.099 209.797 171.766-20.992 34.079c-46.203 58.675-126.198 155.034-205.824 255.672 58.655 71.291 68.157 83.599 68.157 87.859 37.683 50.299 67.195 130.785 41.964 197.98-20.992 54.579-88.842 201.421-93.102 209.777v3.932c0 4.26-3.932 3.604-3.932 7.864-50.278 54.579-146.842 55.071-188.805 55.071zM508.846 876.093c75.571 0 104.407-12.636 112.763-20.992 0-8.356 0.328-21.463-3.932-34.079v-7.864c0-8.356-3.604-16.241-7.864-28.856-25.231 8.356-54.743 7.864-100.966 7.864-46.203 0-75.715 0.328-100.966-3.932-4.239 8.356-3.584 20.48-7.844 28.856v9.175c-4.26 16.712-3.932 24.412-3.932 32.768 8.356 4.26 37.192 17.060 112.742 17.060zM337.101 729.252c8.356-25.252 20.972-54.579 41.943-83.927 33.587-50.319 323.031-406.938 419.574-524.452l-79.974-66.867c-121.61 146.842-360.571 444.969-381.542 478.556-25.252 33.587-46.715 87.040-34.099 120.627 4.26 16.712 17.367 46.694 34.099 76.042zM680.612 729.252c12.616-29.348 25.723-59.351 34.099-76.063 12.616-33.587-8.868-87.040-34.099-120.627-4.26-4.26-16.056-21.955-53.76-68.178-20.972 29.348-47.206 54.743-68.178 79.995 62.935 79.647 75.715 96.686 79.974 100.966 16.732 29.327 33.587 58.655 41.964 83.886zM441.979 708.26h133.734c-4.26-4.26-3.604-8.684-7.864-17.039 0-8.356-17.039-25.395-58.982-79.974-29.348 37.683-54.764 67.359-59.023 79.974-4.26 4.26-3.604 8.684-7.864 17.039zM295.137 347.689c-88.166-109.158-167.834-205.824-167.834-205.824l-24.904-34.12 209.777-171.745 28.856 34.099s58.511 70.451 129.802 158.638c-16.732 20.972-37.048 47.206-53.76 68.198-50.319-58.696-92.774-109.343-118.006-142.95l-79.974 66.888c29.327 33.587 75.223 92.774 129.802 159.949-20.972 25.252-37.048 45.896-53.76 66.867z" />
<glyph unicode="&#xe93f;" glyph-name="card-exchange" horiz-adv-x="1044" d="M841.134 960l-146.248-146.289 146.268-146.289v109.711h73.155c20.664 0 36.577-15.892 36.577-36.557v-146.289h73.114v146.289c0 60.15-49.562 109.711-109.711 109.711h-73.175v109.711zM109.711 850.289c-60.15 0-109.711-49.562-109.711-109.711v-256c0-60.17 49.562-109.711 109.711-109.711h292.577v-219.443c0-60.15 49.562-109.711 109.711-109.711h402.289c60.15 0 109.711 49.562 109.711 109.711v256c0 60.17-49.562 109.711-109.711 109.711h-292.577v219.443c0 60.15-49.562 109.711-109.711 109.711h-402.289zM109.711 777.134h402.289c20.664 0 36.577-15.892 36.577-36.557v-36.577h-438.866v-73.134h438.866v-109.732h-36.577c-47.309 0-87.593-30.802-102.851-73.134h-299.418c-0.184-0.003-0.402-0.005-0.619-0.005-19.873 0-35.983 16.11-35.983 35.983 0 0.211 0.002 0.421 0.005 0.631v-0.032 256c0 20.664 15.913 36.557 36.577 36.557zM512 448h402.289c20.664 0 36.577-15.913 36.577-36.577v-36.557h-438.866v-73.155h438.866v-146.289c0.003-0.172 0.005-0.375 0.005-0.578 0-19.873-16.11-35.983-35.983-35.983-0.21 0-0.421 0.002-0.63 0.005h-402.257c-0.178-0.003-0.388-0.005-0.599-0.005-19.873 0-35.983 16.11-35.983 35.983 0 0.203 0.002 0.406 0.005 0.609v-0.031 256c0 20.685 15.913 36.577 36.577 36.577zM0 301.711v-146.289c0-60.15 49.562-109.711 109.711-109.711h73.175v-109.711l146.268 146.289-146.268 146.289v-109.711h-73.175c-0.178-0.003-0.388-0.005-0.599-0.005-19.873 0-35.983 16.11-35.983 35.983 0 0.203 0.002 0.406 0.005 0.609v-0.031 146.289h-73.134z" />
<glyph unicode="&#xe940;" glyph-name="card-security" d="M105.923 898.56c-58.245 0-105.923-47.677-105.923-105.923v-459.039c0-58.266 47.677-105.943 105.923-105.943h291.656c-5.532 21.116-8.853 45.418-9.153 70.447l-0.002 0.188h-282.501c-19.472 0.070-35.238 15.836-35.308 35.301v459.046c0.070 19.472 15.836 35.238 35.301 35.308h706.219c19.472-0.070 35.238-15.836 35.308-35.301v-35.335h-741.519v-70.615h741.54v-58.266c8.827-4.239 17.326-8.806 25.805-13.394 14.479-7.045 28.57-14.131 44.831-19.456v197.079c-0.020 58.225-47.698 105.902-105.964 105.902h-706.212zM741.519 584.274c-38.851 0-67.072-14.131-95.314-31.785-35.308-17.654-77.701-38.83-151.859-38.83h-35.308v-211.866c0-197.734 257.741-310.743 268.349-314.266l14.131-7.045 14.131 7.045c10.588 3.523 268.349 116.531 268.349 314.245v211.886h-35.308c-70.615 0-112.968 21.176-148.275 38.83-31.785 17.654-60.068 31.785-98.918 31.785zM741.519 513.659c21.176 0 38.871-10.568 63.59-24.678 38.83-17.654 81.183-38.871 148.275-45.937v-141.251c0-130.642-162.427-218.931-211.866-243.651-49.439 24.719-211.866 113.009-211.866 243.651v141.251c70.615 7.066 116.49 31.785 148.275 49.439 24.719 10.609 42.394 21.176 63.59 21.176z" />
<glyph unicode="&#xe941;" glyph-name="card-security-code" d="M109.711 796.16c-60.15 0-109.711-49.562-109.711-109.711v-512c0-60.15 49.562-109.711 109.711-109.711h804.577c60.15 0 109.711 49.562 109.711 109.711v512c0 60.15-49.562 109.711-109.711 109.711h-804.577zM109.711 723.026h804.577c20.705 0 36.577-15.872 36.577-36.577v-73.155h-841.155v-73.134h841.175v-365.711c0.004-0.197 0.006-0.429 0.006-0.661 0-19.839-16.083-35.922-35.922-35.922-0.233 0-0.465 0.002-0.696 0.007l0.035-0.001h-804.598c-0.197-0.004-0.429-0.006-0.661-0.006-19.839 0-35.922 16.083-35.922 35.922 0 0.233 0.002 0.465 0.007 0.696l-0.001-0.035v512c0 20.705 15.872 36.577 36.577 36.577zM274.289 467.026c-50.012 0-91.423-41.431-91.423-91.443v-109.711c0-49.992 41.411-91.423 91.423-91.423 49.992 0 91.423 41.431 91.423 91.423v18.289h-73.134v-18.289c0-10.445-7.864-18.289-18.289-18.289-0.123-0.003-0.269-0.005-0.414-0.005-9.874 0-17.879 8.005-17.879 17.879 0 0.146 0.002 0.291 0.005 0.436v-0.022 109.711c0 10.445 7.864 18.289 18.289 18.289 10.445 0 18.289-7.864 18.289-18.289v-18.289h73.134v18.289c0 50.012-41.431 91.443-91.423 91.443zM493.711 467.026c-49.992 0-91.423-41.431-91.423-91.443 0-49.992 41.431-91.423 91.423-91.423 10.445 0 18.289-7.864 18.289-18.289 0-13.292-2.294-18.289-18.289-18.289-13.844 0-15.852 3.154-15.995 3.441s-2.294 1.434-2.294 10.281h-73.134c0-20.726 5.714-44.134 22.856-61.706s41.984-25.149 68.567-25.149c51.569 0 91.423 44.134 91.423 91.423 0 50.012-41.411 91.423-91.423 91.423-0.123-0.003-0.269-0.005-0.414-0.005-9.874 0-17.879 8.005-17.879 17.879 0 0.146 0.002 0.291 0.005 0.436v-0.022c0 10.445 7.864 18.289 18.289 18.289 9.851 0 12.575-2.13 14.868-4.567 2.273-2.437 3.42-7.148 3.42-10.281h73.134c0 0.083 0 0.182 0 0.28 0 22.803-8.681 43.579-22.919 59.202l0.063-0.070c-15.708 17.306-40.858 28.59-68.567 28.59zM713.134 467.026c-49.992 0-91.423-41.431-91.423-91.443v-109.711c0-49.992 41.431-91.423 91.423-91.423 50.012 0 91.443 41.431 91.443 91.423v18.289h-73.155v-18.289c0-10.445-7.844-18.289-18.289-18.289-0.117-0.003-0.255-0.004-0.394-0.004-9.874 0-17.879 8.005-17.879 17.879 0 0.146 0.002 0.291 0.005 0.435v-0.021 109.711c0 10.445 7.844 18.289 18.268 18.289 10.445 0 18.289-7.864 18.289-18.289v-18.289h73.155v18.289c0 50.012-41.431 91.443-91.443 91.443z" />
<glyph unicode="&#xe942;" glyph-name="card-verification-value" d="M109.711 796.16c-60.15 0-109.711-49.562-109.711-109.711v-512c0-60.15 49.562-109.711 109.711-109.711h804.577c60.15 0 109.711 49.562 109.711 109.711v512c0 60.15-49.562 109.711-109.711 109.711h-804.577zM109.711 723.026h804.577c20.705 0 36.577-15.872 36.577-36.577v-73.155h-841.155v-73.134h841.175v-365.711c0.004-0.197 0.006-0.429 0.006-0.661 0-19.839-16.083-35.922-35.922-35.922-0.233 0-0.465 0.002-0.696 0.007l0.035-0.001h-804.598c-0.197-0.004-0.429-0.006-0.661-0.006-19.839 0-35.922 16.083-35.922 35.922 0 0.233 0.002 0.465 0.007 0.696l-0.001-0.035v512c0 20.705 15.872 36.577 36.577 36.577zM274.289 467.026c-50.012 0-91.423-41.431-91.423-91.443v-109.711c0-49.992 41.411-91.423 91.423-91.423 49.992 0 91.423 41.431 91.423 91.423v18.289h-73.134v-18.289c0-10.445-7.864-18.289-18.289-18.289-0.123-0.003-0.269-0.005-0.414-0.005-9.874 0-17.879 8.005-17.879 17.879 0 0.146 0.002 0.291 0.005 0.436v-0.022 109.711c0 10.445 7.864 18.289 18.289 18.289 10.445 0 18.289-7.864 18.289-18.289v-18.289h73.134v18.289c0 50.012-41.431 91.443-91.423 91.443zM402.289 467.026v-42.291l2.273-5.734 70.861-219.402 7.987-25.149h57.16l7.987 25.149 70.861 219.423 2.294 5.714v42.291h-73.134v-32.010l-36.577-112.005-36.577 112.026v31.99h-73.134zM658.289 467.026v-42.291l2.273-5.734 70.861-219.402 7.987-25.149h57.16l7.987 25.149 70.861 219.423 2.294 5.714v42.291h-73.134v-32.010l-36.577-112.005-36.577 112.026v31.99h-73.134z" />
<glyph unicode="&#xe943;" glyph-name="cardboard-box" d="M162.918 960l-14.541-18.903-148.378-197.837v-807.26h1024v807.281l-148.357 197.816-14.541 18.903h-698.204zM209.449 866.918h256v-93.102h-325.816l69.837 93.102zM558.551 866.918h256l69.816-93.102h-325.837v93.102zM93.082 680.735h837.837v-651.653h-837.837v651.653zM363.622 587.633c-23.871-2.358-42.365-22.331-42.365-46.624 0-1.51 0.071-3.004 0.211-4.478l-0.014 0.188c2.348-23.88 22.326-42.385 46.626-42.385 1.51 0 3.003 0.071 4.476 0.211l-0.188-0.014h279.265c0.164-0.002 0.357-0.003 0.551-0.003 17.114 0 32.083 9.183 40.249 22.89l0.119 0.215c8.356 14.541 8.356 32.358 0 46.899-8.285 13.922-23.254 23.105-40.368 23.105-0.194 0-0.387-0.001-0.581-0.004h-287.961z" />
<glyph unicode="&#xe944;" glyph-name="cast" d="M563.958 960c-93.839 0-170.66-76.841-170.66-170.66 0-35.164 10.813-67.338 29.327-94.679-48.29-14.424-88.316-44.074-115.536-83.285l-0.462-0.704-58.675-86.671c-22.671-33.178-29-75.162-15.995-113.336l15.995-46.674c17.827-50.841 65.403-86.645 121.343-86.651h130.663c58.327 0 106.66 48.333 106.66 106.66s-48.333 106.66-106.66 106.66h-172.012l49.357 72.008c23.174 33.947 61.667 55.952 105.302 55.992h81.353c0.183 0.001 0.399 0.001 0.616 0.001 70.353 0 127.386-57.032 127.386-127.386 0-0.217-0.001-0.433-0.002-0.649v0.033-186.655l-85.34-42.68v-239.985h-85.32v213.32h-85.34v-298.66h256v271.995l85.34 42.68v239.985c0 73.339-37.847 138.854-94.679 177.357 31.662 30.986 52.019 73.81 52.019 121.324-0.020 93.819-76.861 170.66-170.701 170.66zM563.958 874.66c0.208 0.002 0.453 0.003 0.699 0.003 46.748 0 84.644-37.896 84.644-84.644 0-0.239-0.001-0.477-0.003-0.715v0.036c0.002-0.208 0.003-0.453 0.003-0.699 0-46.748-37.896-84.644-84.644-84.644-0.246 0-0.491 0.001-0.737 0.003h0.038c-0.208-0.002-0.453-0.003-0.699-0.003-46.748 0-84.644 37.896-84.644 84.644 0 0.246 0.001 0.491 0.003 0.737v-0.038c-0.002 0.202-0.003 0.44-0.003 0.679 0 46.748 37.896 84.644 84.644 84.644 0.246 0 0.491-0.001 0.737-0.003h-0.038zM325.284 405.34h174.674c12.165 0 21.34-9.175 21.34-21.34s-9.175-21.34-21.34-21.34h-130.662c-18.514 0-33.997 11.837-39.997 29.348l-4.014 13.312z" />
<glyph unicode="&#xe945;" glyph-name="charge-battery" horiz-adv-x="1044" d="M0 755.2v-630.17h945.234v196.936h78.766v236.319h-78.766v196.915h-945.234zM78.766 676.434h787.702v-472.617h-787.702v472.617zM492.298 558.264l-256-118.149h216.617l39.383-118.149 256 118.17h-216.596l-39.404 118.149z" />
<glyph unicode="&#xe946;" glyph-name="chat" horiz-adv-x="1044" d="M0 898.56v-585.134h146.289v-186.286l59.433 47.985 172.564 138.301h353.137v585.134h-731.423zM73.134 825.426h585.155v-438.866h-305.152l-10.281-7.987-123.433-98.304v106.291h-146.289v438.866zM804.577 752.271v-73.134h146.289v-438.866h-146.289v-106.291l-133.734 106.291h-274.248l-91.443-73.134h340.562l231.997-186.286v186.286h146.289v585.134h-219.423z" />
<glyph unicode="&#xe947;" glyph-name="cheap-2" d="M512 960c-282.173 0-512-229.827-512-512s229.827-512 512-512 512 229.827 512 512-229.827 512-512 512zM512 866.918c231.834 0 418.918-187.105 418.918-418.918 0-231.834-187.105-418.918-418.918-418.918-231.834 0-418.918 187.105-418.918 418.918 0 231.834 187.105 418.918 418.918 418.918zM465.449 727.265v-55.255c-53.821-19.456-93.082-70.738-93.082-130.929 0-76.534 63.078-139.633 139.633-139.633 26.358 0 46.551-20.173 46.551-46.531 0-26.378-20.193-46.551-46.551-46.551s-46.551 20.173-46.551 46.551h-93.082c0-60.191 39.26-111.473 93.082-130.908v-55.296h93.102v55.296c53.821 19.456 93.082 70.717 93.082 130.908 0 76.534-63.078 139.633-139.633 139.633-26.358 0-46.551 20.173-46.551 46.531 0 26.378 20.193 46.551 46.551 46.551s46.551-20.173 46.551-46.551h93.082c0 60.191-39.26 111.473-93.082 130.908v55.296h-93.102z" />
<glyph unicode="&#xe948;" glyph-name="checked" d="M512 960c-283.546 0-512-228.454-512-512s228.454-512 512-512 512 228.454 512 512c0 55.091-7.373 109.998-27.075 161.239l-64-62.771c7.844-31.539 12.288-63.078 12.288-98.468 0.001-0.39 0.002-0.851 0.002-1.313 0-238.545-193.379-431.923-431.923-431.923-0.454 0-0.908 0.001-1.362 0.002h0.070c-0.39-0.001-0.851-0.002-1.313-0.002-238.545 0-431.923 193.379-431.923 431.923 0 0.462 0.001 0.923 0.002 1.385v-0.072c-0.001 0.39-0.002 0.851-0.002 1.313 0 238.545 193.379 431.923 431.923 431.923 0.462 0 0.923-0.001 1.385-0.002h-0.072c118.17 0 224.317-47.084 299.069-121.856l55.398 55.398c-90.624 90.604-216.637 145.224-354.468 145.224zM956.314 791.388l-444.314-444.314-168.612 168.612-56.627-56.607 196.936-196.936 28.303-27.075 28.303 27.075 472.637 472.617-56.607 56.627z" />
<glyph unicode="&#xe949;" glyph-name="checked-2" d="M0 939.52v-994.222h994.222v655.053l-82.842-82.862v-489.329h-828.518v828.498h820.716l82.883 82.862h-986.46zM964.444 803.594l-467.333-467.354-177.357 177.357-59.556-59.535 207.155-207.135 29.778-28.467 29.778 28.467 497.091 497.111-59.556 59.556z" />
<glyph unicode="&#xe94a;" glyph-name="checkmark" horiz-adv-x="1044" d="M970.342 816.64l-644.956-644.956-271.729 271.749-53.658-53.658 298.578-298.537 26.829-25.661 26.829 25.661 671.764 671.744z" />
<glyph unicode="&#xe94b;" glyph-name="checkout" d="M41.37 857.6c-22.774 0-41.37-18.596-41.37-41.37 0-22.794 18.596-41.37 41.37-41.37h91.812l108.605-434.442c9.216-36.844 42.189-62.054 80.159-62.054h515.891c37.315 0 68.997 24.74 78.848 60.764l107.315 394.363h-86.63l-99.533-372.347h-515.891l-108.605 434.401c-9.216 36.844-42.189 62.054-80.159 62.054h-91.812zM786.104 278.364c-68.035 0-124.109-56.074-124.109-124.109 0-68.055 56.074-124.129 124.109-124.129s124.109 56.074 124.109 124.109c0 68.055-56.074 124.129-124.109 124.129zM413.737 278.364c-68.035 0-124.109-56.074-124.109-124.109 0-68.055 56.074-124.129 124.109-124.129s124.109 56.074 124.109 124.109c0 68.055-56.074 124.129-124.109 124.129zM620.605 816.23v-124.109h-206.868v-82.76h206.868v-124.109l165.478 165.478-165.478 165.478zM413.737 195.625c23.265 0 41.37-18.104 41.37-41.37 0-23.286-18.104-41.37-41.37-41.37-0.159-0.002-0.348-0.004-0.536-0.004-22.554 0-40.837 18.283-40.837 40.837 0 0.188 0.001 0.377 0.004 0.565v-0.029c0 23.265 18.104 41.37 41.37 41.37zM786.104 195.625c23.265 0 41.37-18.104 41.37-41.37 0-23.286-18.104-41.37-41.37-41.37-0.159-0.002-0.348-0.004-0.536-0.004-22.554 0-40.837 18.283-40.837 40.837 0 0.188 0.001 0.377 0.004 0.565v-0.029c0 23.265 18.084 41.37 41.37 41.37z" />
<glyph unicode="&#xe94c;" glyph-name="chevron" d="M518.205 960l-26.46-25.313-404.992-404.992-25.313-26.46 25.313-26.481 110.449-110.449 26.46-25.313 26.46 25.313 268.083 268.083 268.083-268.083 26.46-25.313 26.481 25.313 110.449 110.449 25.313 26.481-25.313 26.46-404.992 404.992-26.481 25.313zM518.205 855.306l352.072-352.072-57.528-57.549-268.083 268.083-26.46 25.313-26.46-25.293-268.083-268.083-57.528 57.528 352.072 352.051zM518.205 555.008l-26.46-25.313-404.992-405.012-25.313-26.46 25.313-26.46 110.449-110.449 26.46-25.313 26.46 25.313 268.083 268.083 268.083-268.083 26.46-25.313 26.481 25.313 110.449 110.449 25.313 26.46-25.313 26.46-404.992 405.033-26.481 25.313zM518.205 450.294l352.072-352.051-57.528-57.549-268.083 268.083-26.46 25.313-26.46-25.313-268.083-268.083-57.528 57.549 352.072 352.051z" />
<glyph unicode="&#xe94d;" glyph-name="chevron-down" d="M512 95.334l-512 512 24.433 25.559 138.834 138.834 25.539 24.433 323.195-323.174 323.174 323.174 25.559-24.433 138.834-138.834 24.433-25.539-512-512zM512 196.424l410.931 412.058-86.63 86.63-298.762-297.697-25.539-24.412-25.539 24.433-298.762 297.656-86.63-86.63 410.931-412.058z" />
<glyph unicode="&#xe94e;" glyph-name="chevron-down-round" d="M512-64c-282.317 0-512 229.683-512 512s229.683 512 512 512 512-229.683 512-512-229.683-512-512-512zM512 14.766c239.698 0 433.234 193.536 433.234 433.234s-193.536 433.234-433.234 433.234-433.234-193.536-433.234-433.234 193.536-433.234 433.234-433.234zM512 254.771l-28.303 27.075-236.319 236.298 56.627 56.627 207.995-207.995 207.995 207.995 56.627-56.627-236.319-236.298-28.303-27.075z" />
<glyph unicode="&#xe94f;" glyph-name="chevron-filled-down" horiz-adv-x="1044" d="M512 95.334l-512 512 24.433 25.559 138.834 138.834 25.539 24.433 323.195-323.174 323.174 323.174 25.559-24.433 138.834-138.834 24.433-25.539z" />
<glyph unicode="&#xe950;" glyph-name="chevron-filled-up" d="M512 796.16l-512-512 24.433-25.539 138.834-138.834 25.539-24.433 323.195 323.154 323.174-323.174 25.559 24.433 138.834 138.834 24.433 25.559z" />
<glyph unicode="&#xe951;" glyph-name="chevron-left" d="M675.84-64l-27.443 26.255-458.301 458.301-26.255 27.443 26.255 27.443 458.301 458.301 27.443 26.255 27.443-26.255 137.257-138.445 26.255-26.255-26.255-27.443-293.601-293.601 293.601-293.601 26.255-27.443-26.255-26.255-137.257-138.445-27.443-26.255zM675.84 44.605l83.558 83.558-321.085 319.836 27.443 27.443 293.642 292.413-83.558 83.538-403.395-403.395 403.395-403.395z" />
<glyph unicode="&#xe952;" glyph-name="chevron-left-round" horiz-adv-x="1044" d="M512-64c-282.317 0-512 229.683-512 512s229.683 512 512 512 512-229.683 512-512-229.683-512-512-512zM512 14.766c239.698 0 433.234 193.536 433.234 433.234s-193.536 433.234-433.234 433.234-433.234-193.536-433.234-433.234 193.536-433.234 433.234-433.234zM582.144 183.378l-236.298 236.319-27.075 28.303 27.075 28.303 236.298 236.319 56.627-56.627-207.995-207.995 207.995-207.995-56.627-56.627z" />
<glyph unicode="&#xe953;" glyph-name="chevron-right" d="M354.796-64l-27.443 26.255-137.257 138.445-26.255 26.255 26.255 27.443 293.601 293.601-293.601 293.601-26.255 27.443 26.255 26.255 137.257 138.445 27.443 26.255 27.443-26.255 458.301-458.301 26.255-27.443-26.255-27.443-458.301-458.301-27.443-26.255zM354.796 44.605l403.395 403.395-403.395 403.395-83.558-83.558 321.085-319.836-27.443-27.443-293.601-292.413 83.538-83.538z" />
<glyph unicode="&#xe954;" glyph-name="chevron-right-round" d="M512-64c-282.317 0-512 229.683-512 512s229.683 512 512 512 512-229.683 512-512-229.683-512-512-512zM512 14.766c239.698 0 433.234 193.536 433.234 433.234s-193.536 433.234-433.234 433.234-433.234-193.536-433.234-433.234 193.536-433.234 433.234-433.234zM441.856 183.378l-56.627 56.627 207.995 207.995-207.995 207.995 56.627 56.627 236.298-236.319 27.075-28.303-27.075-28.303-236.298-236.319z" />
<glyph unicode="&#xe955;" glyph-name="chevron-up" d="M188.826 95.334l-25.559 24.453-138.834 138.834-24.433 25.539 512 512 512-512-24.433-25.539-138.834-138.834-25.539-24.433-323.195 323.154-323.174-323.133zM187.699 196.424l298.762 297.636 25.539 24.453 25.539-24.453 298.762-297.636 86.63 86.63-410.931 412.058-410.931-412.078 86.63-86.63z" />
<glyph unicode="&#xe956;" glyph-name="chevron-up-round" d="M512-64c-282.317 0-512 229.683-512 512s229.683 512 512 512 512-229.683 512-512-229.683-512-512-512zM512 14.766c239.698 0 433.234 193.536 433.234 433.234s-193.536 433.234-433.234 433.234-433.234-193.536-433.234-433.234 193.536-433.234 433.234-433.234zM304.005 321.229l-56.627 56.627 236.319 236.298 28.303 27.075 28.303-27.075 236.319-236.298-56.627-56.627-207.995 207.995-207.995-207.995z" />
<glyph unicode="&#xe957;" glyph-name="circle" d="M512-64c-282.501 0-512 229.499-512 512s229.499 512 512 512 512-229.499 512-512-229.499-512-512-512zM512-21.34c259.482 0 469.34 209.838 469.34 469.34 0 259.482-209.859 469.34-469.34 469.34s-469.34-209.859-469.34-469.34c0-259.482 209.859-469.34 469.34-469.34z" />
<glyph unicode="&#xe958;" glyph-name="circle-notch" horiz-adv-x="1044" d="M597.34 960v-86.323c194.499-39.67 341.32-212.009 341.32-417.997 0-235.356-191.324-426.68-426.66-426.68-235.315 0-426.66 191.324-426.66 426.66 0 206.008 146.842 378.348 341.32 417.997v86.344c-241.664-40.837-426.66-251.167-426.66-504.34 0-282.317 229.663-512 512-512s512 229.683 512 512c0 253.174-184.996 463.503-426.66 504.34z" />
<glyph unicode="&#xe959;" glyph-name="circle-thin" horiz-adv-x="1044" d="M512-64c-282.501 0-512 229.499-512 512s229.499 512 512 512 512-229.499 512-512-229.499-512-512-512zM512-21.34c259.482 0 469.34 209.838 469.34 469.34 0 259.482-209.859 469.34-469.34 469.34s-469.34-209.859-469.34-469.34c0-259.482 209.859-469.34 469.34-469.34z" />
<glyph unicode="&#xe95a;" glyph-name="circled" d="M512-64c-282.337 0-512 229.663-512 512s229.663 512 512 512 512-229.663 512-512-229.663-512-512-512zM512 21.34c236.175 0 426.66 190.484 426.66 426.66s-190.484 426.66-426.66 426.66c-236.175 0-426.66-190.484-426.66-426.66s190.484-426.66 426.66-426.66z" />
<glyph unicode="&#xe95b;" glyph-name="circled-down" d="M512-64c-282.317 0-512 229.683-512 512s229.683 512 512 512 512-229.683 512-512-229.683-512-512-512zM512 14.766c239.698 0 433.234 193.536 433.234 433.234s-193.536 433.234-433.234 433.234-433.234-193.536-433.234-433.234 193.536-433.234 433.234-433.234zM512 172.298l-157.532 157.553h118.149v393.81h78.766v-393.83h118.17l-157.553-157.532z" />
<glyph unicode="&#xe95c;" glyph-name="circled-down-left" d="M511.795 960c-131.072 0-262.308-49.848-362.168-149.709-199.537-199.68-199.537-524.452 0.164-723.968 199.68-199.7 524.452-199.7 723.988 0 199.7 199.68 199.7 524.452 0 724.132-92.327 92.394-219.911 149.546-360.843 149.546-0.401 0-0.803 0-1.204-0.001h0.063zM511.795 881.848c0.047 0 0.103 0 0.158 0 119.635 0 227.908-48.641 306.124-127.225l0.017-0.017c169.533-169.533 169.533-443.064 0-612.598-169.533-169.554-443.085-169.554-612.618 0-169.533 169.533-169.533 443.064 0 612.598 78.309 78.585 186.632 127.218 306.314 127.242h0.005zM678.871 671.068l-278.487-278.446-83.558 83.538v-222.781h222.822l-83.538 83.558 278.467 278.446-55.706 55.706z" />
<glyph unicode="&#xe95d;" glyph-name="circled-down-right" d="M511.795 960c-131.072 0-262.308-49.848-362.168-149.709-199.537-199.68-199.537-524.452 0.164-723.968 199.68-199.7 524.452-199.7 723.988 0 199.7 199.68 199.7 524.452 0 724.132-92.327 92.394-219.911 149.546-360.843 149.546-0.401 0-0.803 0-1.204-0.001h0.063zM511.795 881.848c0.047 0 0.103 0 0.158 0 119.635 0 227.908-48.641 306.124-127.225l0.017-0.017c169.533-169.533 169.533-443.064 0-612.598-169.533-169.554-443.085-169.554-612.618 0-169.533 169.533-169.533 443.064 0 612.598 78.309 78.585 186.632 127.218 306.314 127.242h0.005zM344.719 671.068l-55.706-55.685 278.487-278.467-83.538-83.538h222.761v222.781l-83.538-83.558-278.446 278.467z" />
<glyph unicode="&#xe95e;" glyph-name="circled-left" d="M512-64c-282.317 0-512 229.683-512 512s229.683 512 512 512 512-229.683 512-512-229.683-512-512-512zM512 14.766c239.698 0 433.234 193.536 433.234 433.234s-193.536 433.234-433.234 433.234-433.234-193.536-433.234-433.234 193.536-433.234 433.234-433.234zM393.83 290.468l-157.512 157.532 157.553 157.532v-118.149h393.83v-78.766h-393.83v-118.17z" />
<glyph unicode="&#xe95f;" glyph-name="circled-right" d="M512-64c-282.317 0-512 229.683-512 512s229.683 512 512 512 512-229.683 512-512-229.683-512-512-512zM512 14.766c239.698 0 433.234 193.536 433.234 433.234s-193.536 433.234-433.234 433.234-433.234-193.536-433.234-433.234 193.536-433.234 433.234-433.234zM630.17 290.468v118.149h-393.892v78.766h393.892v118.17l157.532-157.553-157.553-157.532z" />
<glyph unicode="&#xe960;" glyph-name="circled-up" d="M512-64c-282.317 0-512 229.683-512 512s229.683 512 512 512 512-229.683 512-512-229.683-512-512-512zM512 14.766c239.698 0 433.234 193.536 433.234 433.234s-193.536 433.234-433.234 433.234-433.234-193.536-433.234-433.234 193.536-433.234 433.234-433.234zM472.617 172.298v393.871h-118.17l157.553 157.532 157.532-157.553h-118.149v-393.83h-78.766z" />
<glyph unicode="&#xe961;" glyph-name="circled-up-left" d="M532.275 939.52c-131.072 0-262.308-49.848-362.168-149.709-199.537-199.68-199.537-524.452 0.164-723.968 199.68-199.7 524.452-199.7 723.988 0 199.7 199.68 199.7 524.452 0 724.132-92.327 92.394-219.911 149.546-360.843 149.546-0.401 0-0.803 0-1.204-0.001h0.063zM532.275 861.368c0.047 0 0.103 0 0.158 0 119.635 0 227.908-48.641 306.124-127.225l0.017-0.017c169.533-169.533 169.533-443.064 0-612.598-169.533-169.554-443.085-169.554-612.618 0-169.533 169.533-169.533 443.064 0 612.598 78.309 78.585 186.632 127.218 306.314 127.242h0.005zM337.347 622.756v-222.781l83.538 83.558 278.467-278.467 55.706 55.685-278.487 278.467 83.558 83.538h-222.802z" />
<glyph unicode="&#xe962;" glyph-name="circled-up-right" d="M511.795 960c-131.072 0-262.308-49.848-362.168-149.709-199.537-199.68-199.537-524.452 0.164-723.968 199.68-199.7 524.452-199.7 723.988 0 199.7 199.68 199.7 524.452 0 724.132-92.327 92.394-219.911 149.546-360.843 149.546-0.401 0-0.803 0-1.204-0.001h0.063zM511.795 881.848c0.047 0 0.103 0 0.158 0 119.635 0 227.908-48.641 306.124-127.225l0.017-0.017c169.533-169.533 169.533-443.064 0-612.598-169.533-169.554-443.085-169.554-612.618 0-169.533 169.533-169.533 443.064 0 612.598 78.309 78.585 186.632 127.218 306.314 127.242h0.005zM483.942 643.236l83.538-83.558-278.467-278.446 55.706-55.706 278.446 278.467 83.558-83.538v222.781h-222.781z" />
<glyph unicode="&#xe963;" glyph-name="clinic" d="M512 898.56l-487.383-203.080-24.617-11.059v-656.015h1024v655.995l-24.617 11.080-487.383 203.080zM512 812.401l433.234-180.92v-524.288h-866.468v524.288l433.234 180.92zM472.617 579.789v-118.17h-118.17v-78.746h118.17v-118.17h78.766v118.17h118.17v78.766h-118.17v118.17h-78.766z" />
<glyph unicode="&#xe964;" glyph-name="clipboard" horiz-adv-x="1044" d="M512-64c-51.528 0-88.166 36.475-106.25 81.92h-303.35v942.080h819.2v-942.080h-303.37c-18.063-45.445-54.702-81.92-106.23-81.92zM512 17.92c22.733 0 40.96 18.227 40.96 40.96v40.96h122.88v81.92h-327.68v-81.92h122.88v-40.96c0-22.733 18.227-40.96 40.96-40.96zM184.32 99.84h81.92v163.84h491.52v-163.84h81.92v778.24h-655.36v-778.24z" />
<glyph unicode="&#xe965;" glyph-name="clock" d="M512 960c-282.337 0-512-229.663-512-512s229.663-512 512-512 512 229.663 512 512-229.663 512-512 512zM512 874.66c236.175 0 426.66-190.484 426.66-426.66s-190.484-426.66-426.66-426.66c-236.175 0-426.66 190.484-426.66 426.66s190.484 426.66 426.66 426.66zM469.34 789.34v-384h298.66v85.32h-213.34v298.68h-85.32z" />
<glyph unicode="&#xe966;" glyph-name="clone" d="M213.34 960c-93.839 0-170.68-76.841-170.68-170.66 0-47.514 20.337-90.337 52.019-121.344-56.873-38.502-94.679-103.997-94.679-177.336v-239.985l85.34-42.68v-271.995h256v271.995l85.32 42.68v69.325h-85.32v-15.995l-85.34-42.68v-239.985h-85.34v239.985l-85.32 42.701v186.655c-0.001 0.183-0.001 0.399-0.001 0.616 0 70.353 57.032 127.386 127.386 127.386 0.217 0 0.433-0.001 0.649-0.002h-0.033c0.183 0.001 0.399 0.001 0.616 0.001 70.353 0 127.386-57.032 127.386-127.386 0-0.217-0.001-0.433-0.002-0.649v0.033h85.32c0 73.339-37.827 138.854-94.659 177.357 31.662 30.986 51.999 73.81 51.999 121.324 0 93.798-76.841 170.639-170.66 170.639zM810.66 960c-93.819 0-170.66-76.841-170.66-170.66 0-47.514 20.337-90.337 52.019-121.344-56.852-38.502-94.679-103.997-94.679-177.336v-239.985l85.32-42.68v-271.995h256v271.995l85.34 42.68v239.985c0 73.339-37.827 138.854-94.659 177.357 31.662 30.986 51.999 73.81 51.999 121.324 0 93.819-76.841 170.66-170.68 170.66zM213.34 874.66c0.202 0.002 0.44 0.003 0.679 0.003 46.748 0 84.644-37.896 84.644-84.644 0-0.239-0.001-0.477-0.003-0.715v0.037c0.002-0.208 0.003-0.453 0.003-0.699 0-46.748-37.896-84.644-84.644-84.644-0.239 0-0.477 0.001-0.715 0.003h0.036c-0.208-0.002-0.453-0.003-0.699-0.003-46.748 0-84.644 37.896-84.644 84.644 0 0.246 0.001 0.491 0.003 0.737v-0.038c-0.002 0.202-0.003 0.44-0.003 0.679 0 46.748 37.896 84.644 84.644 84.644 0.246 0 0.491-0.001 0.737-0.003h-0.038zM810.66 874.66c0.208 0.002 0.453 0.003 0.699 0.003 46.748 0 84.644-37.896 84.644-84.644 0-0.239-0.001-0.477-0.003-0.715v0.036c0.002-0.208 0.003-0.453 0.003-0.699 0-46.748-37.896-84.644-84.644-84.644-0.246 0-0.491 0.001-0.737 0.003h0.038c-0.202-0.002-0.44-0.003-0.679-0.003-46.748 0-84.644 37.896-84.644 84.644 0 0.246 0.001 0.491 0.003 0.737v-0.038c-0.002 0.202-0.003 0.44-0.003 0.679 0 46.748 37.896 84.644 84.644 84.644 0.239 0 0.477-0.001 0.715-0.003h-0.037zM810.66 618.66c0.183 0.001 0.399 0.001 0.616 0.001 70.353 0 127.386-57.032 127.386-127.386 0-0.217-0.001-0.433-0.002-0.649v0.033-186.655l-85.32-42.68v-239.985h-85.34v239.985l-85.34 42.68v186.655c-0.001 0.183-0.001 0.399-0.001 0.616 0 70.353 57.032 127.386 127.386 127.386 0.217 0 0.433-0.001 0.649-0.002h-0.033zM469.34 525.332v-77.332h-170.68v-85.34h170.68v-77.332l119.992 120.013-120.013 119.992z" />
</font>
</defs>
</svg>
